<svg width="119" height="82" viewBox="0 0 119 82" fill="none" xmlns="http://www.w3.org/2000/svg">
<path d="M10.6384 13.9487C10.6054 14.3493 10.572 14.73 10.5383 15.0906C10.5179 15.451 10.4974 15.8048 10.4768 16.1518C10.4562 16.4989 10.4355 16.8393 10.4146 17.1731C10.3936 17.4935 10.3726 17.8206 10.3518 18.1543C10.3417 18.3412 10.3445 18.5012 10.3601 18.6342C10.3889 18.7538 10.4438 18.8461 10.525 18.9114C10.5793 18.9638 10.6466 19.0026 10.7271 19.0279C10.8208 19.0529 10.9211 19.0645 11.0277 19.0627C11.0677 19.062 11.101 19.0614 11.1277 19.0609C11.1677 19.0602 11.201 19.0596 11.2277 19.0592L11.5476 19.0536C11.5387 19.3071 11.523 19.5541 11.5006 19.7945C11.4781 20.0349 11.4624 20.2819 11.4535 20.5355C11.4415 20.6157 11.4159 20.6761 11.3766 20.7168C11.3371 20.7442 11.284 20.7584 11.2174 20.7596C11.1507 20.7608 11.0507 20.7625 10.9174 20.7648C10.7841 20.7672 10.6641 20.7693 10.5575 20.7711C10.2108 20.7772 9.89674 20.736 9.61516 20.6476C9.34667 20.5456 9.11081 20.403 8.90758 20.2198C8.71745 20.0231 8.57329 19.7856 8.47508 19.5073C8.39021 19.2287 8.35796 18.9092 8.37834 18.5488C8.40996 18.0682 8.44812 17.5808 8.49284 17.0866C8.53732 16.5791 8.57537 16.085 8.60699 15.6044C8.61683 15.4042 8.62667 15.204 8.63651 15.0038C8.64635 14.8036 8.65619 14.6034 8.66603 14.4032C8.6892 14.2027 8.70571 14.0024 8.71555 13.8022C8.7467 13.2949 8.69306 12.8958 8.55463 12.6048C8.4293 12.3003 8.19216 12.0844 7.84322 11.9572C7.50761 11.8297 7.03985 11.7711 6.43994 11.7816C6.02667 11.7888 5.64041 11.8156 5.28116 11.8619C4.92192 11.9081 4.56968 11.9743 4.22447 12.0603C3.89258 12.1461 3.54783 12.2588 3.19021 12.3984L2.87026 12.404C2.8925 12.1503 2.90808 11.8966 2.91699 11.6431C2.93923 11.3893 2.95492 11.1423 2.96406 10.9021C2.9767 10.8619 2.98944 10.8284 3.00231 10.8015C3.01494 10.7612 3.02769 10.7277 3.04056 10.7008C3.11938 10.6327 3.32451 10.5425 3.65593 10.43C4.00068 10.3173 4.41899 10.2167 4.91085 10.1281C5.40271 10.0395 5.9086 9.99062 6.42852 9.98154C7.20174 9.96805 7.86303 10.0365 8.41241 10.187C8.97512 10.3372 9.42602 10.576 9.76512 10.9035C10.1042 11.2309 10.3448 11.6468 10.487 12.151C10.6423 12.6417 10.6927 13.241 10.6384 13.9487ZM3.72823 18.0099C3.69568 18.4372 3.78815 18.769 4.00564 19.0052C4.2229 19.2281 4.57815 19.3353 5.07141 19.3267C5.52468 19.3187 5.95023 19.2513 6.34807 19.1243C6.75902 18.9838 7.16202 18.7701 7.55707 18.4831C7.95212 18.1962 8.36554 17.8156 8.79733 17.3413L8.74806 19.1025L8.12815 19.1133C7.89517 19.5174 7.60781 19.8625 7.26609 20.1485C6.92436 20.4345 6.53493 20.6613 6.09779 20.829C5.66041 20.9833 5.1751 21.0651 4.64185 21.0744C4.00195 21.0856 3.45993 20.975 3.01581 20.7427C2.58479 20.4969 2.25879 20.1559 2.03781 19.7197C1.83016 19.2832 1.74133 18.778 1.77132 18.2041L1.83839 17.4628C1.87094 17.0355 1.96441 16.6605 2.1188 16.3377C2.28629 16.0014 2.50803 15.7175 2.78403 15.486C3.07313 15.2409 3.41661 15.0549 3.81445 14.9279C4.2123 14.801 4.65785 14.7332 5.15111 14.7246C5.59104 14.7169 6.02431 14.7093 6.45091 14.7019C6.89084 14.6942 7.32411 14.6866 7.75071 14.6792C8.17731 14.6717 8.59725 14.6644 9.01052 14.6572C9.11717 14.6553 9.19177 14.7274 9.23432 14.8733C9.29021 15.019 9.3199 15.1919 9.32339 15.3918C9.32688 15.5918 9.31704 15.792 9.29386 15.9925C8.82727 16.0006 8.394 16.0082 7.99406 16.0151C7.59412 16.0221 7.18085 16.0293 6.75425 16.0368C6.34098 16.044 5.88105 16.052 5.37446 16.0609C5.08117 16.066 4.82846 16.1037 4.61632 16.1741C4.41728 16.2309 4.25227 16.3272 4.12129 16.4628C4.0165 16.5713 3.93205 16.6995 3.86796 16.8473C3.81719 16.9949 3.78666 17.1554 3.77635 17.3289L3.72823 18.0099ZM18.4884 20.6327C18.3951 20.6343 18.2751 20.6364 18.1285 20.639C17.9952 20.6413 17.8552 20.6437 17.7086 20.6463C17.5619 20.6489 17.4419 20.651 17.3486 20.6526C17.3086 20.6533 17.2685 20.6473 17.2283 20.6347C17.2011 20.6085 17.174 20.5823 17.1469 20.5561C17.1329 20.5163 17.132 20.4697 17.1444 20.4161C17.2199 19.388 17.2886 18.36 17.3507 17.332C17.4261 16.3039 17.5015 15.2758 17.5769 14.2476C17.6523 13.2195 17.7277 12.1913 17.8031 11.1632C17.8785 10.1351 17.954 9.1136 18.0296 8.09879C18.0622 7.67149 18.0883 7.25764 18.108 6.85723C18.1407 6.44327 18.1736 6.03596 18.2067 5.63532C18.3533 5.63276 18.4999 5.63021 18.6466 5.62765C18.7932 5.62509 18.9332 5.62264 19.0665 5.62032C19.2132 5.61776 19.3598 5.6152 19.5065 5.61264C19.6531 5.61008 19.7997 5.60752 19.9464 5.60496C19.9864 5.60426 20.0199 5.61701 20.0471 5.64321C20.074 5.65607 20.0943 5.67572 20.1081 5.70215C20.1352 5.72835 20.1493 5.76811 20.1502 5.82143C20.0757 6.9029 19.9946 7.98448 19.9068 9.06618C19.8321 10.1343 19.7508 11.2092 19.663 12.2909C19.5883 13.3591 19.5136 14.4272 19.4389 15.4953C19.3642 16.5635 19.2894 17.6249 19.2145 18.6797C19.2145 18.6797 19.189 18.7468 19.138 18.8811C19.1003 19.0151 19.0432 19.1828 18.9667 19.3842C18.89 19.5722 18.82 19.7668 18.7569 19.9679C18.6935 20.1557 18.6296 20.3168 18.5653 20.4513C18.514 20.5722 18.4884 20.6327 18.4884 20.6327ZM18.7001 19.0087L19.0259 17.0428C19.505 17.7545 19.9938 18.2527 20.4922 18.5374C21.0039 18.8218 21.5397 18.9592 22.0996 18.9494C22.5262 18.942 22.8913 18.8489 23.1949 18.6703C23.5118 18.4914 23.7671 18.2202 23.9608 17.8568C24.1543 17.48 24.2729 17.0179 24.3167 16.4703L24.5116 13.8865C24.5439 13.4459 24.5174 13.073 24.4321 12.7678C24.3465 12.4492 24.2021 12.1984 23.9989 12.0152C23.8494 11.8578 23.654 11.7412 23.4127 11.6654C23.1847 11.5894 22.9173 11.554 22.6107 11.5594C22.2374 11.5659 21.8589 11.6525 21.4751 11.8192C21.1044 11.9724 20.7354 12.2255 20.3682 12.5787C20.014 12.9182 19.6618 13.3644 19.3114 13.9173L19.4708 11.5942L20.0308 11.5844C20.2906 11.1931 20.5782 10.8614 20.8935 10.5892C21.2086 10.3036 21.5581 10.0842 21.9422 9.93079C22.326 9.76406 22.7512 9.67663 23.2178 9.66848C23.7511 9.65917 24.2261 9.7509 24.6428 9.94365C25.0729 10.1362 25.4244 10.4101 25.6973 10.7654C25.9836 11.1204 26.1911 11.5502 26.3199 12.0547C26.4485 12.5459 26.4915 13.0985 26.4489 13.7127L26.2609 16.6964C26.2059 17.3642 26.0828 17.9531 25.8917 18.4632C25.7003 18.9599 25.4409 19.3778 25.1135 19.7169C24.7993 20.0558 24.4305 20.3156 24.0069 20.4964C23.5831 20.6638 23.1112 20.752 22.5913 20.7611C22.1247 20.7692 21.6969 20.71 21.308 20.5835C20.9188 20.4436 20.562 20.2431 20.2373 19.9821C19.9258 19.7075 19.6401 19.3791 19.38 18.9969L18.7001 19.0087ZM37.0679 9.42673C37.7611 9.41463 38.383 9.51712 38.9335 9.73422C39.4974 9.95107 39.9695 10.2562 40.3497 10.6496C40.73 11.0431 41.0115 11.5116 41.1944 12.0551C41.3906 12.5984 41.4611 13.204 41.4061 13.8717L41.2831 15.9942C41.219 16.9021 40.9794 17.6931 40.5644 18.3671C40.1495 19.0411 39.5986 19.5708 38.9119 19.9561C38.225 20.3282 37.4216 20.5222 36.5017 20.5383C35.8085 20.5504 35.1801 20.4547 34.6164 20.2512C34.0525 20.0343 33.5738 19.7293 33.1802 19.3361C32.7997 18.9293 32.5181 18.4542 32.3352 17.9106C32.1524 17.3671 32.0818 16.7615 32.1235 16.094L32.2668 13.9912C32.3305 13.0566 32.57 12.259 32.9852 11.5983C33.4001 10.9243 33.9577 10.4012 34.658 10.0289C35.3581 9.64327 36.1614 9.44255 37.0679 9.42673ZM37.0786 11.1868C36.492 11.197 35.9874 11.3192 35.5648 11.5533C35.1554 11.7871 34.8344 12.1128 34.6017 12.5302C34.3822 12.9475 34.2506 13.4298 34.2069 13.9774L34.0428 16.0405C34.0101 16.4545 34.0436 16.8473 34.1434 17.219C34.2433 17.5906 34.422 17.9009 34.6798 18.1497C34.8834 18.3595 35.133 18.5219 35.4284 18.6367C35.7368 18.738 36.0844 18.7853 36.471 18.7786C37.0576 18.7683 37.5555 18.6463 37.9648 18.4124C38.3739 18.1653 38.6882 17.8331 38.9076 17.4158C39.1403 16.9984 39.2787 16.5226 39.3227 15.9884L39.4871 13.9452C39.5192 13.4912 39.4853 13.0784 39.3855 12.7068C39.2856 12.3351 39.1069 12.0249 38.8492 11.776C38.6457 11.5795 38.3964 11.4305 38.1012 11.329C37.8061 11.2275 37.4652 11.1801 37.0786 11.1868ZM49.802 9.42449C49.8553 9.42356 49.8955 9.43619 49.9226 9.46239C49.9495 9.47525 49.97 9.50157 49.984 9.54133C50.0112 9.56753 50.0184 9.60074 50.0058 9.64096C49.9629 10.2418 49.9202 10.8493 49.8776 11.4635C49.8347 12.0643 49.792 12.6718 49.7493 13.286C49.7198 13.8866 49.6836 14.4873 49.6408 15.0882C49.5977 15.6757 49.5545 16.2565 49.5112 16.8307C49.4667 17.3382 49.5533 17.7168 49.771 17.9663C50.0021 18.2157 50.3309 18.3366 50.7575 18.3292C51.0508 18.324 51.3434 18.2789 51.6353 18.1938C51.9269 18.0954 52.2179 17.957 52.5082 17.7785C52.7982 17.5868 53.1008 17.3481 53.4158 17.0626C53.7309 16.777 54.0449 16.4315 54.3579 16.026L54.1963 18.2291L53.5364 18.2407C53.2239 18.6728 52.8903 19.0454 52.5357 19.3583C52.1943 19.6576 51.8249 19.8908 51.4278 20.0577C51.0304 20.2114 50.5918 20.2924 50.1118 20.3007C49.6719 20.3084 49.2773 20.242 48.9282 20.1014C48.5921 19.9472 48.3151 19.7387 48.0971 19.4758C47.8789 19.1995 47.7134 18.8824 47.6004 18.5243C47.5008 18.166 47.4673 17.7732 47.4999 17.3459C47.5425 16.7317 47.5851 16.1175 47.6277 15.5034C47.6837 14.889 47.733 14.2747 47.7756 13.6605C47.818 13.033 47.8671 12.412 47.9231 11.7976C47.943 11.4106 47.9629 11.0235 47.9828 10.6364C48.0159 10.2358 48.0423 9.84193 48.0622 9.45485C48.3555 9.44973 48.6488 9.44462 48.9421 9.4395C49.2354 9.43438 49.522 9.42937 49.802 9.42449ZM56.241 9.31209C56.281 9.3114 56.3145 9.32415 56.3417 9.35034C56.3686 9.36321 56.389 9.38952 56.4031 9.42928C56.4302 9.45548 56.4442 9.49524 56.4451 9.54857C56.3814 10.4832 56.3111 11.4179 56.234 12.3527C56.1703 13.2873 56.1001 14.2286 56.0233 15.1768C55.9598 16.1247 55.8963 17.066 55.8326 18.0005C55.8108 18.281 55.7888 18.5481 55.7665 18.8018C55.7574 19.042 55.7412 19.2623 55.7181 19.4628C55.7082 19.663 55.6979 19.8365 55.6871 19.9834C55.4872 19.9869 55.2872 19.9904 55.0872 19.9939C54.8873 19.9973 54.6873 20.0008 54.4873 20.0043C54.3007 20.0076 54.114 20.0108 53.9274 20.0141C53.8874 20.0148 53.854 20.0087 53.8271 19.9958C53.7999 19.9697 53.7728 19.9435 53.7457 19.9173C53.7319 19.8908 53.7245 19.851 53.7236 19.7976C53.81 18.6359 53.8964 17.4743 53.9828 16.3126C54.0692 15.1509 54.149 13.9893 54.222 12.8279C54.3084 11.6662 54.3948 10.5045 54.4813 9.34281C54.6812 9.33932 54.8745 9.33595 55.0612 9.33269C55.2611 9.3292 55.4544 9.32582 55.6411 9.32256C55.841 9.31907 56.041 9.31558 56.241 9.31209ZM62.7122 9.19914L71.2109 9.05079C71.2775 9.04963 71.3246 9.06881 71.3519 9.10834C71.3926 9.14764 71.4135 9.20061 71.4147 9.26727C71.4044 9.44081 71.394 9.60768 71.3834 9.76789C71.3729 9.9281 71.3624 10.0883 71.3518 10.2485C71.3413 10.4087 71.3242 10.5757 71.3006 10.7495L62.8018 10.8978C62.7752 10.8983 62.7485 10.8988 62.7219 10.8992C62.695 10.8864 62.6681 10.8735 62.6412 10.8606C62.6274 10.8342 62.6136 10.8078 62.5998 10.7813C62.5993 10.7547 62.5987 10.7214 62.598 10.6814C62.6083 10.5078 62.6188 10.3409 62.6293 10.1807C62.6532 10.0203 62.6704 9.85997 62.6809 9.69976C62.6915 9.53955 62.7019 9.37268 62.7122 9.19914ZM70.787 17.9996C70.7648 18.2533 70.7425 18.5071 70.7203 18.7608C70.7111 19.001 70.6954 19.248 70.6732 19.5018C70.6744 19.5684 70.6553 19.6221 70.616 19.6628C70.5767 19.7035 70.5171 19.7245 70.4371 19.7259C70.3971 19.7266 70.3104 19.7281 70.1771 19.7305C70.0438 19.7328 69.8772 19.7357 69.6772 19.7392C69.4906 19.7424 69.3039 19.7457 69.1173 19.749C68.944 19.752 68.784 19.7548 68.6374 19.7573C68.0508 19.7676 67.5097 19.7103 67.0141 19.5856C66.5316 19.4474 66.1143 19.2213 65.7621 18.9074C65.4232 18.5933 65.1693 18.1776 65.0002 17.6605C64.8445 17.1431 64.7867 16.504 64.8267 15.7432C64.8817 15.0755 64.9302 14.4146 64.9721 13.7604C65.0272 13.0927 65.0756 12.4317 65.1176 11.7776C65.1595 11.1234 65.2014 10.4692 65.2433 9.81506C65.2983 9.14733 65.3467 8.47972 65.3884 7.81222C65.4226 7.47824 65.4501 7.14438 65.4709 6.81063C65.4918 6.47688 65.5126 6.14313 65.5335 5.80938C65.8267 5.80427 66.1134 5.79926 66.3933 5.79438C66.6866 5.78926 66.9732 5.78425 67.2532 5.77937C67.3065 5.77844 67.3467 5.79107 67.3739 5.81727C67.4008 5.83013 67.4211 5.84978 67.4349 5.87621C67.462 5.90241 67.4694 5.94229 67.457 5.99584C67.4043 6.79688 67.3449 7.59804 67.2789 8.39932C67.2262 9.20036 67.167 10.0082 67.1012 10.8228C67.0487 11.6372 66.9962 12.4449 66.9435 13.2459C66.8908 14.047 66.8315 14.8548 66.7657 15.6694C66.7341 16.15 66.7478 16.5498 66.8067 16.8688C66.8653 17.1745 66.9896 17.4191 67.1795 17.6025C67.3559 17.7727 67.5779 17.8889 67.8457 17.9509C68.1135 18.0129 68.4474 18.0404 68.8473 18.0334C69.0073 18.0306 69.1806 18.0276 69.3672 18.0243C69.5672 18.0208 69.7605 18.0175 69.9471 18.0142C70.1338 18.011 70.3137 18.0078 70.487 18.0048L70.787 17.9996ZM101.817 19.1782C101.643 19.1812 101.47 19.1842 101.297 19.1873C101.123 19.1903 100.95 19.1933 100.777 19.1963C100.604 19.1994 100.437 19.2023 100.277 19.2051C100.237 19.2058 100.197 19.1998 100.157 19.1872C100.129 19.161 100.102 19.1348 100.075 19.1086C100.061 19.0821 100.061 19.0421 100.073 18.9886C100.104 18.468 100.135 17.9407 100.166 17.4067C100.21 16.8726 100.247 16.3452 100.278 15.8245C100.322 15.3037 100.36 14.7763 100.39 14.2423C100.434 13.7081 100.478 13.1806 100.523 12.6598C100.567 12.1256 100.604 11.5982 100.635 11.0776C100.657 10.7838 100.606 10.5713 100.484 10.4401C100.375 10.2953 100.2 10.225 99.9602 10.2292C99.7469 10.233 99.5347 10.2967 99.3234 10.4204C99.112 10.5307 98.8817 10.7081 98.6326 10.9525C98.3969 11.1967 98.129 11.5147 97.8292 11.9067L97.7374 10.088L98.5173 10.0744C98.7241 9.69739 98.9386 9.38026 99.1608 9.12301C99.3963 8.86553 99.6462 8.6678 99.9105 8.52984C100.188 8.39164 100.487 8.31974 100.807 8.31416C101.074 8.30951 101.314 8.35864 101.53 8.46157C101.745 8.55116 101.92 8.68812 102.057 8.87243C102.207 9.04318 102.31 9.25473 102.368 9.5071C102.439 9.7459 102.464 10.0188 102.442 10.3259C102.399 10.9001 102.356 11.4743 102.312 12.0485C102.282 12.6224 102.246 13.1965 102.202 13.7706C102.159 14.3315 102.115 14.899 102.072 15.4732C102.042 16.0471 102.005 16.6212 101.962 17.1954C101.941 17.5291 101.914 17.863 101.88 18.1969C101.858 18.5174 101.838 18.8444 101.817 19.1782ZM97.5373 19.2529C97.3907 19.2554 97.2374 19.2581 97.0774 19.2609C96.9174 19.2637 96.7574 19.2665 96.5975 19.2693C96.4508 19.2719 96.3042 19.2744 96.1575 19.277C96.1175 19.2777 96.0774 19.2717 96.0372 19.2591C96.0101 19.2329 95.9896 19.2066 95.9758 19.1801C95.962 19.1537 95.9547 19.1138 95.9537 19.0605C95.9977 18.5263 96.0352 17.9989 96.0661 17.4783C96.1101 16.9441 96.1476 16.4167 96.1785 15.8961C96.2225 15.3619 96.26 14.8345 96.2909 14.3139C96.335 13.7797 96.3724 13.2523 96.4033 12.7317C96.4474 12.1975 96.4847 11.6634 96.5154 11.1295C96.5386 10.9291 96.5224 10.7693 96.467 10.6503C96.4249 10.531 96.3568 10.4455 96.2625 10.3938C96.168 10.3288 96.0341 10.2978 95.8608 10.3008C95.6475 10.3045 95.4286 10.3683 95.2041 10.4923C94.9793 10.6029 94.7424 10.7804 94.4933 11.0248C94.2575 11.2689 93.9898 11.5936 93.6901 11.9989L93.558 10.161L94.2579 10.1487C94.4645 9.7584 94.679 9.44128 94.9014 9.19736C95.137 8.93988 95.3936 8.74203 95.6712 8.60383C95.9488 8.46563 96.2543 8.39363 96.5876 8.38781C96.8542 8.38315 97.0883 8.42574 97.2899 8.51557C97.4915 8.6054 97.6606 8.74247 97.7971 8.92678C97.9468 9.09753 98.0504 9.30242 98.1079 9.54145C98.1788 9.78025 98.2034 10.0465 98.1819 10.3403C98.1386 10.9145 98.0958 11.522 98.0537 12.1628C98.0115 12.8036 97.9635 13.4912 97.9096 14.2256C97.8558 14.96 97.7962 15.7478 97.7309 16.5891C97.6786 17.4168 97.6141 18.3047 97.5373 19.2529ZM93.4379 19.3244C93.3046 19.3268 93.1713 19.3291 93.038 19.3314C92.9047 19.3337 92.7714 19.3361 92.6381 19.3384C92.5181 19.3405 92.3914 19.3427 92.2581 19.345C92.1248 19.3474 91.9982 19.3496 91.8782 19.3517C91.8382 19.3524 91.8049 19.3529 91.7782 19.3534C91.7513 19.3405 91.7244 19.3277 91.6975 19.3148C91.6837 19.2884 91.6699 19.262 91.6561 19.2355C91.6557 19.2089 91.6617 19.1754 91.6744 19.1352C91.7381 18.2006 91.8018 17.266 91.8655 16.3314C91.9289 15.3835 91.9925 14.4423 92.0562 13.5077C92.133 12.5595 92.2033 11.6182 92.267 10.6836C92.3 10.2829 92.3269 9.91573 92.3477 9.58198C92.3817 9.23467 92.4031 8.93425 92.412 8.68073C92.532 8.67863 92.6453 8.67665 92.752 8.67479C92.8586 8.67293 92.9653 8.67107 93.0719 8.66921C93.1786 8.66735 93.2852 8.66548 93.3919 8.66362C93.4985 8.66176 93.6052 8.6599 93.7118 8.65804C93.7118 8.65804 93.7269 8.75779 93.7571 8.95729C93.8005 9.15657 93.8445 9.3825 93.8889 9.6351C93.9333 9.88769 93.9706 10.1137 94.0008 10.3132C94.0442 10.5125 94.0661 10.6188 94.0663 10.6322C94.0003 11.4334 93.9356 12.308 93.8721 13.2559C93.8086 14.2039 93.7392 15.1919 93.6638 16.22C93.5882 17.2348 93.5129 18.2696 93.4379 19.3244ZM112.537 8.1094C113.377 8.09474 114.12 8.24847 114.766 8.57058C115.425 8.87913 115.926 9.36378 116.271 10.0245C116.616 10.6853 116.751 11.5231 116.675 12.5379L116.581 14.0197C116.568 14.06 116.556 14.1002 116.543 14.1404C116.53 14.1673 116.504 14.1944 116.465 14.2218C116.438 14.2356 116.398 14.243 116.345 14.2439L111.166 14.3343C110.952 14.338 110.739 14.3417 110.526 14.3455C110.313 14.3492 110.099 14.3529 109.886 14.3566L109.286 14.3671L109.123 13.0297L114.742 12.9317C114.754 12.8381 114.759 12.758 114.758 12.6914C114.77 12.6245 114.782 12.5442 114.793 12.4507C114.838 11.9432 114.81 11.5169 114.711 11.1719C114.625 10.8134 114.466 10.5228 114.236 10.3001C114.046 10.1167 113.803 9.98092 113.509 9.89272C113.214 9.80452 112.866 9.76392 112.466 9.7709C111.626 9.78556 110.977 10.0169 110.518 10.465C110.073 10.9128 109.818 11.6374 109.756 12.6386L109.594 14.8418C109.549 15.2827 109.575 15.6689 109.675 16.0006C109.787 16.332 109.952 16.6092 110.169 16.8321C110.413 17.0678 110.736 17.2422 111.138 17.3552C111.54 17.4682 112.015 17.52 112.561 17.5104C113.055 17.5018 113.487 17.4676 113.86 17.4077C114.232 17.3346 114.577 17.2419 114.895 17.1296C115.213 17.0174 115.537 16.8784 115.868 16.7126L116.188 16.707C116.165 16.9341 116.143 17.1679 116.12 17.4083C116.111 17.6485 116.095 17.8888 116.073 18.1292C116.073 18.1559 116.067 18.1893 116.054 18.2296C116.042 18.2565 116.022 18.2835 115.996 18.3106C115.865 18.4462 115.634 18.5836 115.303 18.7228C114.985 18.8483 114.58 18.9554 114.088 19.044C113.61 19.1457 113.064 19.2019 112.451 19.2126C111.691 19.2259 110.996 19.138 110.366 18.9489C109.749 18.7597 109.231 18.482 108.811 18.116C108.405 17.7363 108.096 17.2616 107.886 16.6919C107.69 16.1219 107.618 15.4764 107.673 14.7553L107.816 12.6725C107.869 11.8981 108.024 11.2286 108.281 10.6641C108.538 10.0995 108.877 9.63352 109.297 9.26613C109.717 8.88541 110.199 8.60362 110.742 8.42078C111.299 8.22436 111.897 8.12057 112.537 8.1094Z" fill="#1E9BD1"/>
<path d="M61.6601 37.886C61.5351 35.3978 61.6601 30.078 61.6601 28.3541M25.462 29.1712L36.9059 28.9419M45.6645 28.433L51.6735 28.433M70.6035 27.8001L73.2765 27.8001L77.23 27.7311M85.9437 27.5932L91.6737 27.5242L97.4037 27.4552M104.644 27.3171L110.374 27.2481L116.104 27.1791M3.66565 29.4005L15.1095 29.1712" stroke="#1E9BD1" stroke-width="4.0906" stroke-miterlimit="1.5" stroke-linecap="round" stroke-linejoin="round"/>
<path d="M63.5465 79.6021C61.9197 69.7926 60.7572 67.4036 50.4911 60.3202M63.5465 79.6021C63.3289 70.7794 66.4303 64.5505 74.5277 60.0346M63.5465 79.6021C63.0378 72.7431 62.0522 56.4206 62.1788 46.0034" stroke="#1E9BD1" stroke-width="4.0906" stroke-miterlimit="1.5" stroke-linecap="round" stroke-linejoin="round"/>
</svg>
