<svg width="30" height="31" viewBox="0 0 30 31" fill="none" xmlns="http://www.w3.org/2000/svg">
<path fill-rule="evenodd" clip-rule="evenodd" d="M15 3.51025C8.09375 3.51025 2.5 9.104 2.5 16.0103C2.5 21.5415 6.07812 26.2134 11.0469 27.8696C11.6719 27.979 11.9062 27.604 11.9062 27.2759C11.9062 26.979 11.8906 25.9946 11.8906 24.9478C8.75 25.5259 7.9375 24.1821 7.6875 23.479C7.54687 23.1196 6.9375 22.0103 6.40625 21.7134C5.96875 21.479 5.34375 20.9009 6.39063 20.8853C7.375 20.8696 8.07813 21.7915 8.3125 22.1665C9.4375 24.0571 11.2344 23.5259 11.9531 23.1978C12.0625 22.3853 12.3906 21.8384 12.75 21.5259C9.96875 21.2134 7.0625 20.1353 7.0625 15.354C7.0625 13.9946 7.54688 12.8696 8.34375 11.9946C8.21875 11.6821 7.78125 10.4009 8.46875 8.68213C8.46875 8.68213 9.51563 8.354 11.9062 9.96338C12.9062 9.68213 13.9688 9.5415 15.0313 9.5415C16.0938 9.5415 17.1563 9.68213 18.1563 9.96338C20.5469 8.33838 21.5938 8.68213 21.5938 8.68213C22.2813 10.4009 21.8438 11.6821 21.7188 11.9946C22.5156 12.8696 23 13.979 23 15.354C23 20.1509 20.0781 21.2134 17.2969 21.5259C17.75 21.9165 18.1406 22.6665 18.1406 23.8384C18.1406 25.5103 18.125 26.854 18.125 27.2759C18.125 27.604 18.3594 27.9946 18.9844 27.8696C21.4659 27.0319 23.6221 25.4371 25.1497 23.3097C26.6773 21.1822 27.4993 18.6293 27.5 16.0103C27.5 9.104 21.9063 3.51025 15 3.51025Z" fill="#1E9BD1"/>
</svg>
