<svg width="36" height="35" viewBox="0 0 36 35" fill="none" xmlns="http://www.w3.org/2000/svg">
<path fill-rule="evenodd" clip-rule="evenodd" d="M17.5023 3.27643C9.44499 3.27643 2.91895 9.80247 2.91895 17.8598C2.91895 24.3129 7.09342 29.7634 12.8903 31.6957C13.6195 31.8233 13.8929 31.3858 13.8929 31.003C13.8929 30.6566 13.8747 29.5082 13.8747 28.2868C10.2106 28.9613 9.2627 27.3936 8.97103 26.5733C8.80697 26.154 8.09603 24.8598 7.47624 24.5134C6.96582 24.24 6.23665 23.5655 7.45801 23.5473C8.60645 23.529 9.42676 24.6046 9.7002 25.0421C11.0127 27.2478 13.1091 26.628 13.9476 26.2452C14.0752 25.2973 14.458 24.6592 14.8773 24.2947C11.6325 23.9301 8.24186 22.6723 8.24186 17.0941C8.24186 15.5082 8.80697 14.1957 9.73665 13.1749C9.59082 12.8103 9.0804 11.3155 9.88249 9.31028C9.88249 9.31028 11.1038 8.92747 13.8929 10.8051C15.0596 10.4769 16.2992 10.3129 17.5387 10.3129C18.7783 10.3129 20.0179 10.4769 21.1846 10.8051C23.9736 8.90924 25.195 9.31028 25.195 9.31028C25.9971 11.3155 25.4867 12.8103 25.3408 13.1749C26.2705 14.1957 26.8356 15.49 26.8356 17.0941C26.8356 22.6905 23.4268 23.9301 20.182 24.2947C20.7106 24.7504 21.1663 25.6254 21.1663 26.9926C21.1663 28.9431 21.1481 30.5108 21.1481 31.003C21.1481 31.3858 21.4216 31.8415 22.1507 31.6957C25.0458 30.7184 27.5615 28.8577 29.3437 26.3757C31.1259 23.8937 32.0848 20.9153 32.0856 17.8598C32.0856 9.80247 25.5596 3.27643 17.5023 3.27643Z" fill="#636363" fill-opacity="0.44"/>
</svg>
