<svg width="119" height="81" viewBox="0 0 119 81" fill="none" xmlns="http://www.w3.org/2000/svg">
<path d="M3.18124 9.36864C3.39454 9.36491 3.59451 9.36142 3.78115 9.35816C3.96779 9.35491 4.15442 9.35165 4.34106 9.34839C4.54103 9.3449 4.73434 9.34153 4.92097 9.33827C4.9743 9.33734 5.01453 9.34997 5.04165 9.37617C5.06855 9.38903 5.08901 9.41535 5.10304 9.45511C5.13017 9.48131 5.13753 9.52118 5.12513 9.57474C5.03919 10.7631 4.95349 11.9648 4.86801 13.1798C4.7823 14.3815 4.69671 15.5898 4.61124 16.8048C4.52553 18.0065 4.43982 19.2082 4.35411 20.4098C4.26841 21.6115 4.1827 22.8132 4.09699 24.0149C3.89702 24.0184 3.69705 24.0219 3.49708 24.0254C3.31044 24.0286 3.12381 24.0319 2.93717 24.0351C2.75053 24.0384 2.55723 24.0418 2.35726 24.0453C2.31726 24.0459 2.27704 24.0333 2.23658 24.0074C2.20968 23.9945 2.18255 23.9683 2.15519 23.9288C2.1414 23.9023 2.14081 23.869 2.15345 23.8288C2.22862 22.7873 2.30378 21.7458 2.37895 20.7044C2.45435 19.6762 2.52309 18.6482 2.58516 17.6203C2.66033 16.5788 2.7355 15.5374 2.81067 14.4959C2.89917 13.4542 2.98112 12.4193 3.05652 11.3911C3.07713 11.044 3.09786 10.7036 3.1187 10.3699C3.13955 10.0361 3.16039 9.70238 3.18124 9.36864ZM8.49659 9.05582C9.21648 9.04326 9.82596 9.19931 10.325 9.52398C10.8374 9.84842 11.219 10.3152 11.4696 10.9242C11.7201 11.5199 11.8125 12.2318 11.747 13.0597L11.559 16.0434C11.5173 16.7109 11.3942 17.2998 11.1898 17.8102C10.9987 18.3202 10.7394 18.7448 10.4119 19.0839C10.0978 19.4228 9.72891 19.6826 9.30533 19.8634C8.88175 20.0441 8.41001 20.139 7.89008 20.1481C7.43682 20.156 7.01572 20.0967 6.62679 19.9701C6.25141 19.8567 5.90821 19.6759 5.59717 19.428C5.28613 19.1801 5.01438 18.8914 4.78193 18.5621L4.22202 18.5719L4.34848 16.6494C4.78556 17.2418 5.25317 17.6737 5.75131 17.9451C6.26255 18.2029 6.81146 18.3266 7.39804 18.3164C7.82464 18.309 8.19641 18.2158 8.51333 18.0369C8.83003 17.8447 9.07855 17.567 9.25891 17.2038C9.45236 16.827 9.5711 16.3715 9.61511 15.8373L9.81005 13.2535C9.84236 12.8129 9.81585 12.44 9.73051 12.1348C9.64494 11.8162 9.50721 11.5652 9.31731 11.3819C9.15454 11.2247 8.95248 11.1082 8.71112 11.0324C8.48309 10.9563 8.21577 10.921 7.90915 10.9264C7.53587 10.9329 7.15744 11.0262 6.77386 11.2062C6.40337 11.3727 6.03452 11.6325 5.66729 11.9856C5.3134 12.3385 4.9547 12.7982 4.59119 13.3646L4.77067 11.0412L5.33059 11.0314C5.59023 10.6268 5.87759 10.2817 6.19265 9.99618C6.50771 9.71063 6.85715 9.4845 7.24097 9.31778C7.62479 9.15105 8.04333 9.06373 8.49659 9.05582ZM19.7381 18.6611L19.8021 17.7398C19.8117 17.5263 19.8213 17.3128 19.8309 17.0992C19.8538 16.8855 19.8701 16.6718 19.8797 16.4583C19.9024 16.2312 19.9186 16.0109 19.9282 15.7973C19.9717 15.2365 20.0154 14.6823 20.0592 14.1348C20.1027 13.574 20.1396 13.0132 20.1698 12.4526C20.2134 11.8918 20.2569 11.3309 20.3005 10.7701L19.9805 10.7757C19.6739 10.781 19.3606 10.7865 19.0407 10.7921C18.7341 10.7974 18.4274 10.8028 18.1208 10.8081C18.0542 10.8093 18.0005 10.7902 17.9598 10.7509C17.9324 10.7114 17.9182 10.6583 17.917 10.5916C17.9395 10.3512 17.9553 10.1109 17.9644 9.87071C17.9869 9.63028 18.0092 9.37652 18.0312 9.10943C18.2045 9.1064 18.3844 9.10326 18.5711 9.1C18.7711 9.09651 18.971 9.09302 19.171 9.08953C19.371 9.08604 19.5776 9.08244 19.7909 9.07871C20.0042 9.07499 20.2175 9.07127 20.4308 9.06754C20.6574 9.06359 20.8774 9.05975 21.0907 9.05602C21.3173 9.05207 21.5373 9.04823 21.7506 9.04451C21.7506 9.04451 21.765 9.10426 21.7937 9.22378C21.8225 9.3433 21.8519 9.50281 21.8821 9.70231C21.9253 9.88825 21.9688 10.0875 22.0126 10.3001C22.056 10.4994 22.0927 10.6921 22.1227 10.8783C22.1659 11.0642 22.1885 11.2105 22.1903 11.3172C22.1465 11.8647 22.1032 12.4389 22.0604 13.0397C22.0175 13.6405 21.975 14.2614 21.9329 14.9022C21.8907 15.5431 21.8487 16.1905 21.8067 16.8447C21.7646 17.4855 21.7222 18.113 21.6796 18.7272L19.7381 18.6611ZM21.7245 10.9853L22.3844 10.9737C22.8393 10.299 23.3635 9.7698 23.9569 9.38605C24.5501 8.98897 25.2199 8.78392 25.9665 8.77089C26.3397 8.76437 26.6269 8.7927 26.8281 8.85586C27.0423 8.90547 27.1901 8.96956 27.2715 9.04815C27.2986 9.07435 27.3192 9.10733 27.3332 9.14709C27.347 9.17352 27.3478 9.22018 27.3357 9.28707C27.3141 9.58082 27.2925 9.86791 27.2707 10.1483C27.262 10.4152 27.2402 10.6956 27.2054 10.9896L26.8854 10.9952C26.6707 10.9189 26.4565 10.8693 26.2427 10.8464C26.0287 10.8101 25.7818 10.7944 25.5018 10.7993C25.1152 10.8061 24.7163 10.873 24.3051 11.0002C23.907 11.1139 23.4971 11.3144 23.0754 11.6018C22.6537 11.8892 22.2074 12.297 21.7366 12.8253L21.7245 10.9853ZM17.2077 18.0852L25.2265 17.9452C25.2798 17.9443 25.32 17.9569 25.3471 17.9831C25.374 17.996 25.3945 18.0223 25.4085 18.062C25.4223 18.0885 25.4296 18.1217 25.4303 18.1617C25.42 18.3352 25.4095 18.5021 25.399 18.6623C25.3885 18.8225 25.3779 18.9827 25.3674 19.1429C25.3569 19.3031 25.3398 19.4701 25.3161 19.6439L17.3373 19.7832C17.2574 19.7846 17.197 19.7656 17.1563 19.7263C17.1156 19.687 17.1014 19.6339 17.1135 19.567C17.1238 19.3935 17.1343 19.2266 17.1448 19.0664C17.1553 18.9062 17.1659 18.746 17.1764 18.5858C17.187 18.4256 17.1974 18.2587 17.2077 18.0852ZM37.4566 8.55032C38.1498 8.53822 38.7717 8.64072 39.3222 8.85781C39.8861 9.07467 40.3581 9.37981 40.7384 9.77323C41.1187 10.1667 41.4002 10.6351 41.5831 11.1787C41.7792 11.722 41.8498 12.3276 41.7948 12.9953L41.6718 15.1178C41.6076 16.0257 41.3681 16.8167 40.9531 17.4907C40.5381 18.1647 39.9873 18.6944 39.3006 19.0797C38.6137 19.4518 37.8102 19.6458 36.8904 19.6619C36.1972 19.674 35.5687 19.5783 35.0051 19.3748C34.4412 19.1579 33.9625 18.8529 33.5689 18.4597C33.1884 18.0529 32.9067 17.5778 32.7239 17.0342C32.541 16.4907 32.4705 15.8851 32.5122 15.2176L32.6555 13.1148C32.7192 12.1802 32.9586 11.3826 33.3738 10.7219C33.7888 10.0479 34.3464 9.52475 35.0467 9.15247C35.7467 8.76686 36.55 8.56615 37.4566 8.55032ZM37.4673 10.3104C36.8807 10.3206 36.3761 10.4428 35.9534 10.6769C35.5441 10.9107 35.2231 11.2364 34.9903 11.6538C34.7709 12.0711 34.6393 12.5534 34.5955 13.1009L34.4315 15.1641C34.3987 15.5781 34.4323 15.9709 34.5321 16.3425C34.6319 16.7142 34.8107 17.0245 35.0684 17.2733C35.2721 17.4831 35.5217 17.6455 35.817 17.7603C36.1255 17.8616 36.4731 17.9089 36.8597 17.9022C37.4462 17.8919 37.9442 17.7699 38.3535 17.536C38.7626 17.2889 39.0768 16.9567 39.2963 16.5394C39.529 16.122 39.6674 15.6462 39.7114 15.112L39.8758 13.0688C39.9079 12.6148 39.874 12.202 39.7741 11.8304C39.6743 11.4587 39.4955 11.1485 39.2378 10.8996C39.0344 10.7031 38.7851 10.5541 38.4899 10.4526C38.1948 10.351 37.8539 10.3037 37.4673 10.3104ZM55.1499 8.46152C55.1899 8.46082 55.2234 8.47357 55.2506 8.49977C55.2908 8.5124 55.3179 8.5386 55.3319 8.57836C55.3457 8.60479 55.353 8.638 55.3537 8.678C55.2989 9.35906 55.2436 10.0135 55.1879 10.6412C55.1453 11.2554 55.1026 11.8629 55.0597 12.4637C55.0169 13.0645 54.9742 13.6787 54.9319 14.3062C54.8892 14.9204 54.8403 15.5547 54.785 16.2091C54.7429 16.8499 54.6946 17.5242 54.6403 18.2319C54.5876 19.0329 54.44 19.7423 54.1974 20.36C53.9681 20.9774 53.6438 21.4965 53.2244 21.9172C52.8184 22.3377 52.3038 22.6534 51.6807 22.8643C51.0712 23.0883 50.3465 23.2076 49.5066 23.2223C49.0134 23.2309 48.5529 23.2056 48.1251 23.1464C47.6973 23.0871 47.3425 23.0067 47.0607 22.9049C46.7789 22.8031 46.5905 22.7064 46.4956 22.6147C46.4818 22.5883 46.468 22.5619 46.4542 22.5354C46.4404 22.509 46.4333 22.4824 46.4328 22.4558C46.4546 22.1754 46.4698 21.9017 46.4785 21.6349C46.5005 21.3678 46.5224 21.094 46.5441 20.8136L46.8641 20.808C47.1464 20.9364 47.4215 21.0383 47.6896 21.1136C47.9709 21.1887 48.2652 21.2436 48.5726 21.2783C48.8932 21.3127 49.2335 21.3267 49.5935 21.3205C50.1 21.3116 50.5388 21.2373 50.9098 21.0974C51.2943 20.9707 51.6175 20.7717 51.8795 20.5004C52.0495 20.3108 52.1925 20.0949 52.3083 19.8528C52.424 19.6108 52.5126 19.3359 52.5739 19.0281C52.6485 18.7201 52.7026 18.3791 52.7361 18.0051C52.7902 17.284 52.8385 16.6164 52.8811 16.0023C52.9235 15.3748 52.9661 14.7606 53.009 14.1598C53.0519 13.5589 53.0946 12.9514 53.1372 12.3372C53.1929 11.7095 53.2477 11.0284 53.3016 10.2941L53.0616 10.2982C52.6617 10.3052 52.2617 10.3122 51.8618 10.3192C51.4619 10.3262 51.0553 10.3333 50.642 10.3405C50.242 10.3475 49.8421 10.3544 49.4422 10.3614C49.0422 10.3684 48.6423 10.3754 48.2424 10.3824C48.1757 10.3835 48.122 10.3645 48.0813 10.3252C48.054 10.2856 48.0397 10.2325 48.0385 10.1659C48.0608 9.91213 48.0762 9.65182 48.0849 9.38496C48.1069 9.11787 48.1289 8.85078 48.1509 8.58369C48.7242 8.57368 49.3041 8.56356 49.8907 8.55332C50.4773 8.54308 51.0572 8.53296 51.6304 8.52295C52.217 8.51271 52.8036 8.50247 53.3901 8.49224C53.9767 8.482 54.5633 8.47176 55.1499 8.46152ZM53.365 3.61193C53.5649 3.60844 53.7649 3.60495 53.9649 3.60146C54.1648 3.59797 54.3648 3.59448 54.5648 3.59099C54.7781 3.58727 54.9847 3.58366 55.1847 3.58017C55.398 3.57645 55.598 3.57296 55.7846 3.5697C55.8513 3.56853 55.9049 3.5876 55.9456 3.6269C55.9863 3.66619 56.0006 3.71928 55.9884 3.78617L55.844 5.829C55.6441 5.83249 55.4441 5.83599 55.2441 5.83948C55.0442 5.84297 54.8375 5.84657 54.6242 5.8503C54.4243 5.85379 54.2243 5.85728 54.0243 5.86077C53.8243 5.86426 53.6244 5.86775 53.4244 5.87124C53.3578 5.8724 53.3041 5.85334 53.2634 5.81404C53.236 5.77451 53.2218 5.72142 53.2206 5.65476L53.365 3.61193ZM67.6563 8.02319C68.4962 8.00853 69.239 8.16225 69.8847 8.48436C70.5435 8.79291 71.0454 9.27756 71.3903 9.93831C71.7352 10.5991 71.8699 11.4368 71.7942 12.4516L71.7001 13.9335C71.6875 13.9737 71.6748 14.014 71.6622 14.0542C71.6493 14.0811 71.6231 14.1082 71.5836 14.1356C71.5572 14.1494 71.5173 14.1567 71.464 14.1577L66.2848 14.2481C66.0715 14.2518 65.8582 14.2555 65.6449 14.2592C65.4316 14.263 65.2182 14.2667 65.0049 14.2704L64.405 14.2809L64.2417 12.9435L69.8608 12.8454C69.8725 12.7519 69.8778 12.6718 69.8766 12.6051C69.8888 12.5382 69.9007 12.458 69.9124 12.3645C69.9569 11.857 69.9295 11.4307 69.8301 11.0857C69.7438 10.7272 69.5854 10.4366 69.3548 10.2139C69.1649 10.0305 68.9225 9.89471 68.6276 9.80651C68.3327 9.71831 67.9852 9.6777 67.5853 9.68468C66.7454 9.69934 66.096 9.93071 65.6371 10.3788C65.1915 10.8266 64.9375 11.5512 64.8749 12.5524L64.7134 14.7556C64.6677 15.1964 64.6945 15.5827 64.7936 15.9143C64.9061 16.2458 65.0709 16.5229 65.2882 16.7458C65.5323 16.9816 65.8554 17.156 66.2575 17.269C66.6595 17.382 67.1338 17.4337 67.6804 17.4242C68.1737 17.4156 68.6065 17.3814 68.9788 17.3215C69.3509 17.2483 69.696 17.1556 70.0141 17.0434C70.3322 16.9312 70.6565 16.7922 70.987 16.6264L71.3069 16.6208C71.2842 16.8479 71.2616 17.0816 71.2392 17.3221C71.23 17.5623 71.2142 17.8026 71.1917 18.043C71.1922 18.0697 71.1861 18.1031 71.1735 18.1433C71.1606 18.1702 71.1411 18.1973 71.1149 18.2244C70.9839 18.36 70.7529 18.4974 70.422 18.6365C70.1041 18.7621 69.6993 18.8692 69.2074 18.9578C68.7291 19.0595 68.1833 19.1157 67.5701 19.1264C66.8102 19.1396 66.1152 19.0518 65.4852 18.8627C64.8684 18.6735 64.3502 18.3958 63.9304 18.0297C63.5237 17.6501 63.2154 17.1754 63.0054 16.6057C62.8088 16.0357 62.7375 15.3902 62.7916 14.6691L62.9352 12.5863C62.9884 11.8119 63.1434 11.1424 63.4003 10.5779C63.6571 10.0133 63.9957 9.5473 64.416 9.17991C64.8361 8.79919 65.3179 8.5174 65.8615 8.33456C66.4181 8.13815 67.0164 8.03435 67.6563 8.02319ZM83.3661 7.74897C83.9927 7.73803 84.547 7.78837 85.029 7.89997C85.5108 7.99825 85.8996 8.11814 86.1955 8.25967C86.5044 8.38763 86.7065 8.50412 86.8016 8.60914C86.8554 8.63487 86.8827 8.66774 86.8834 8.70773C86.8972 8.73416 86.8979 8.77415 86.8855 8.82771C86.8766 9.08124 86.861 9.33488 86.8388 9.58864C86.8163 9.82907 86.8006 10.0761 86.7917 10.3296L86.4717 10.3352C86.0005 10.0767 85.5237 9.88497 85.0415 9.76004C84.559 9.62177 83.9978 9.55822 83.3579 9.56939C82.6913 9.58103 82.1266 9.69757 81.6637 9.91901C81.214 10.1269 80.8596 10.4531 80.6006 10.8977C80.3548 11.3287 80.2045 11.8848 80.1497 12.5658L80.0362 14.088C79.992 14.6089 80.0199 15.0618 80.12 15.4468C80.2331 15.8182 80.4187 16.135 80.6766 16.3972C80.9072 16.6199 81.2035 16.7881 81.5656 16.9018C81.9409 17.0153 82.3953 17.0673 82.9285 17.058C83.3418 17.0508 83.7211 17.0109 84.0666 16.9381C84.4254 16.8652 84.7637 16.766 85.0816 16.6404C85.4127 16.5146 85.7435 16.3621 86.0737 16.183L86.3937 16.1774C86.3717 16.4445 86.3497 16.7116 86.3276 16.9787C86.3054 17.2324 86.2834 17.4995 86.2616 17.78C86.2621 17.8066 86.2559 17.8334 86.243 17.8603C86.2435 17.887 86.224 17.914 86.1844 17.9413C86.0668 18.0767 85.8491 18.2139 85.5315 18.3528C85.2139 18.4917 84.8158 18.6053 84.3373 18.6937C83.8723 18.7952 83.3399 18.8511 82.74 18.8616C81.9534 18.8753 81.2582 18.7741 80.6543 18.5579C80.0505 18.3418 79.545 18.0306 79.1378 17.6243C78.7304 17.2046 78.435 16.7031 78.2514 16.1195C78.081 15.5224 78.0228 14.8633 78.0769 14.1423L78.1865 12.4001C78.2493 11.4122 78.5015 10.581 78.9431 9.90649C79.3978 9.21845 80.0021 8.69449 80.7559 8.33461C81.5095 7.9614 82.3796 7.76619 83.3661 7.74897ZM93.2806 7.79594L101.779 7.6476C101.846 7.64644 101.893 7.66562 101.92 7.70515C101.961 7.74444 101.982 7.79742 101.983 7.86408C101.973 8.03762 101.962 8.20449 101.952 8.3647C101.941 8.52491 101.931 8.68511 101.92 8.84532C101.91 9.00553 101.893 9.17252 101.869 9.34629L93.3703 9.49464C93.3436 9.4951 93.317 9.49557 93.2903 9.49604C93.2634 9.48317 93.2365 9.4703 93.2096 9.45744C93.1958 9.43101 93.182 9.40458 93.1682 9.37815C93.1678 9.35148 93.1672 9.31816 93.1665 9.27816C93.1768 9.10462 93.1872 8.93775 93.1977 8.77754C93.2216 8.6171 93.2388 8.45678 93.2494 8.29657C93.2599 8.13636 93.2703 7.96948 93.2806 7.79594ZM101.355 16.5964C101.333 16.8501 101.311 17.1039 101.289 17.3576C101.28 17.5978 101.264 17.8448 101.242 18.0986C101.243 18.1652 101.224 18.2189 101.184 18.2596C101.145 18.3003 101.086 18.3213 101.006 18.3227C100.966 18.3234 100.879 18.3249 100.746 18.3273C100.612 18.3296 100.446 18.3325 100.246 18.336C100.059 18.3393 99.8724 18.3425 99.6857 18.3458C99.5124 18.3488 99.3524 18.3516 99.2058 18.3541C98.6192 18.3644 98.0781 18.3072 97.5826 18.1824C97.1001 18.0442 96.6827 17.8181 96.3305 17.5042C95.9917 17.1901 95.7377 16.7744 95.5686 16.2573C95.4129 15.7399 95.3551 15.1009 95.3952 14.34C95.4502 13.6723 95.4987 13.0114 95.5406 12.3572C95.5956 11.6895 95.6441 11.0285 95.686 10.3744C95.7279 9.72019 95.7698 9.06603 95.8118 8.41186C95.8668 7.74414 95.9151 7.07652 95.9568 6.40903C95.991 6.07505 96.0185 5.74118 96.0394 5.40743C96.0602 5.07369 96.0811 4.73994 96.1019 4.40619C96.3952 4.40107 96.6818 4.39607 96.9618 4.39118C97.2551 4.38606 97.5417 4.38106 97.8216 4.37617C97.875 4.37524 97.9152 4.38788 97.9423 4.41407C97.9692 4.42694 97.9896 4.44659 98.0034 4.47302C98.0305 4.49921 98.0378 4.53909 98.0254 4.59265C97.9728 5.39369 97.9134 6.19485 97.8474 6.99612C97.7947 7.79716 97.7354 8.60499 97.6696 9.41959C97.6172 10.234 97.5646 11.0417 97.5119 11.8427C97.4592 12.6438 97.4 13.4516 97.3342 14.2662C97.3026 14.7468 97.3162 15.1466 97.3751 15.4657C97.4338 15.7713 97.5581 16.0159 97.748 16.1993C97.9243 16.3695 98.1464 16.4857 98.4141 16.5477C98.6819 16.6097 99.0158 16.6372 99.4157 16.6302C99.5757 16.6274 99.749 16.6244 99.9357 16.6211C100.136 16.6177 100.329 16.6143 100.516 16.611C100.702 16.6078 100.882 16.6046 101.055 16.6016L101.355 16.5964ZM112.248 16.5062C113.181 16.49 113.852 16.3449 114.26 16.0711C114.669 15.7839 114.889 15.42 114.921 14.9794C114.943 14.7123 114.906 14.4929 114.81 14.3212C114.727 14.1493 114.558 13.9989 114.302 13.87C114.06 13.7409 113.704 13.6271 113.236 13.5285L111.35 13.2014C110.694 13.0795 110.164 12.9021 109.76 12.6691C109.356 12.4228 109.064 12.1145 108.884 11.7442C108.704 11.374 108.637 10.9484 108.682 10.4676C108.714 10.0003 108.833 9.57146 109.039 9.18113C109.259 8.79056 109.56 8.45859 109.942 8.18522C110.337 7.91161 110.807 7.69672 111.351 7.54053C111.908 7.38412 112.54 7.29974 113.247 7.28741C113.887 7.27624 114.441 7.30657 114.909 7.37842C115.377 7.45026 115.752 7.53706 116.034 7.63883C116.329 7.74036 116.51 7.82387 116.578 7.88936C116.592 7.90246 116.599 7.92234 116.599 7.94901C116.613 7.9621 116.62 7.98199 116.62 8.00865C116.634 8.02175 116.634 8.04841 116.621 8.08864C116.599 8.3424 116.577 8.59616 116.555 8.84992C116.546 9.09011 116.53 9.33709 116.508 9.59085L116.188 9.59644C115.852 9.46894 115.53 9.36787 115.222 9.29324C114.928 9.21837 114.613 9.16385 114.279 9.12967C113.945 9.09549 113.565 9.08213 113.138 9.08958C112.592 9.09912 112.133 9.16047 111.761 9.27364C111.403 9.38657 111.126 9.55143 110.93 9.76822C110.734 9.98501 110.625 10.247 110.604 10.554C110.581 10.7811 110.604 10.9808 110.674 11.1529C110.757 11.3115 110.913 11.4488 111.141 11.5648C111.37 11.6675 111.698 11.7618 112.126 11.8477L114.012 12.1748C114.735 12.2955 115.305 12.4923 115.723 12.765C116.141 13.0244 116.433 13.3527 116.6 13.7499C116.78 14.1335 116.848 14.579 116.804 15.0865C116.762 15.7673 116.552 16.3444 116.174 16.8178C115.795 17.2911 115.268 17.6537 114.592 17.9055C113.917 18.144 113.099 18.2717 112.139 18.2884C111.579 18.2982 111.065 18.2738 110.597 18.2153C110.13 18.1701 109.715 18.104 109.354 18.017C108.992 17.9166 108.69 17.8085 108.448 17.6927C108.206 17.577 108.037 17.4732 107.942 17.3815C107.929 17.3551 107.915 17.3287 107.901 17.3022C107.887 17.2758 107.88 17.2493 107.88 17.2226C107.901 16.9288 107.923 16.6484 107.945 16.3813C107.967 16.1142 107.982 15.8473 107.991 15.5804L108.311 15.5748C108.594 15.7432 108.876 15.8917 109.159 16.0201C109.441 16.1352 109.736 16.23 110.044 16.3047C110.352 16.3793 110.686 16.4335 111.047 16.4672C111.407 16.5009 111.808 16.5139 112.248 16.5062Z" fill="#1E9BD1"/>
<path d="M62.0488 37.0095C61.9238 34.5213 62.0488 29.2016 62.0488 27.4776M25.8507 28.2948L37.2945 28.0654M46.0532 27.5565L52.0621 27.5565M70.9921 26.9237L73.6652 26.9237L77.6187 26.8547M86.3324 26.7167L92.0624 26.6477L97.7923 26.5787M105.033 26.4406L110.763 26.3716L116.493 26.3026M4.05432 28.524L15.4981 28.2947" stroke="#1E9BD1" stroke-width="4.0906" stroke-miterlimit="1.5" stroke-linecap="round" stroke-linejoin="round"/>
<path d="M63.9352 78.7257C62.3083 68.9162 61.1459 66.5272 50.8797 59.4437M63.9352 78.7257C63.7176 69.9029 66.819 63.674 74.9164 59.1581M63.9352 78.7257C63.4265 71.8666 62.4408 55.5442 62.5675 45.1269" stroke="#1E9BD1" stroke-width="4.0906" stroke-miterlimit="1.5" stroke-linecap="round" stroke-linejoin="round"/>
</svg>
