<svg width="26" height="26" viewBox="0 0 26 26" fill="none" xmlns="http://www.w3.org/2000/svg">
<path fill-rule="evenodd" clip-rule="evenodd" d="M25.2773 13.0103C25.2773 19.9138 19.6809 25.5103 12.7773 25.5103C5.87379 25.5103 0.277344 19.9138 0.277344 13.0103C0.277344 6.1067 5.87379 0.510254 12.7773 0.510254C19.6809 0.510254 25.2773 6.1067 25.2773 13.0103ZM13.2253 9.73832C12.0095 10.244 9.57955 11.2907 5.93554 12.8783C5.34381 13.1136 5.03384 13.3438 5.00562 13.5689C4.95793 13.9493 5.43431 14.0991 6.08302 14.3031C6.17126 14.3309 6.26269 14.3596 6.35642 14.3901C6.99465 14.5975 7.85318 14.8402 8.2995 14.8499C8.70435 14.8586 9.1562 14.6917 9.65507 14.3492C13.0598 12.0509 14.8173 10.8892 14.9276 10.8642C15.0055 10.8465 15.1134 10.8243 15.1865 10.8893C15.2595 10.9542 15.2524 11.0773 15.2446 11.1103C15.1974 11.3115 13.3275 13.05 12.3597 13.9496C12.0581 14.2301 11.8441 14.429 11.8003 14.4745C11.7023 14.5763 11.6025 14.6725 11.5065 14.7651C10.9135 15.3367 10.4689 15.7653 11.5311 16.4653C12.0415 16.8016 12.45 17.0798 12.8575 17.3573C13.3025 17.6604 13.7464 17.9626 14.3207 18.3391C14.467 18.435 14.6067 18.5346 14.7428 18.6317C15.2607 19.0009 15.726 19.3326 16.3008 19.2797C16.6349 19.249 16.9799 18.9349 17.1551 17.9981C17.5692 15.7844 18.3832 10.9878 18.5713 9.01128C18.5878 8.83811 18.567 8.61649 18.5504 8.5192C18.5337 8.42191 18.499 8.2833 18.3725 8.18068C18.2227 8.05916 17.9915 8.03353 17.8881 8.03535C17.418 8.04363 16.6966 8.29445 13.2253 9.73832Z" fill="#1E9BD1"/>
</svg>
