<svg width="32" height="31" viewBox="0 0 32 31" fill="none" xmlns="http://www.w3.org/2000/svg">
<path d="M15.1284 0.385986C15.8188 0.385986 16.3784 0.94563 16.3784 1.63599V15.386C16.3784 16.0763 16.9381 16.636 17.6284 16.636H21.3784C22.0688 16.636 22.6284 17.1956 22.6284 17.886V29.136C22.6284 29.8263 22.0688 30.386 21.3784 30.386H10.1284C9.43806 30.386 8.87842 29.8263 8.87842 29.136V17.886C8.87842 17.1956 9.43806 16.636 10.1284 16.636H11.3784C12.0688 16.636 12.6284 16.0763 12.6284 15.386V6.63599C12.6284 5.94563 12.0688 5.38599 11.3784 5.38599H10.1284C9.43806 5.38599 8.87842 4.82634 8.87842 4.13599V1.63599C8.87842 0.94563 9.43806 0.385986 10.1284 0.385986H15.1284Z" fill="#E6E6E6"/>
<rect x="26.604" y="25.6958" width="4.69022" height="4.69022" rx="1" fill="#E6E6E6"/>
</svg>
