<svg width="35" height="31" viewBox="0 0 35 31" fill="none" xmlns="http://www.w3.org/2000/svg">
<path d="M12.5503 0.385986C11.8599 0.385986 11.3003 0.94563 11.3003 1.63599V2.88599C11.3003 3.57634 11.8599 4.13599 12.5503 4.13599L20.0503 4.13599C20.7406 4.13599 21.3003 4.69563 21.3003 5.38599V12.886C21.3003 13.5763 20.7406 14.136 20.0503 14.136L12.5503 14.136C11.8599 14.136 11.3003 14.6956 11.3003 15.386V29.136C11.3003 29.8263 11.8599 30.386 12.5503 30.386H23.8003C24.4906 30.386 25.0503 29.8263 25.0503 29.136V27.886C25.0503 27.1956 24.4906 26.636 23.8003 26.636H16.3003C15.6099 26.636 15.0503 26.0763 15.0503 25.386V19.136C15.0503 18.4456 15.6099 17.886 16.3003 17.886L23.8003 17.886C24.4906 17.886 25.0503 17.3263 25.0503 16.636V1.63599C25.0503 0.94563 24.4906 0.385986 23.8003 0.385986H12.5503Z" fill="#E6E6E6"/>
<rect x="30.0493" y="25.6958" width="4.69022" height="4.69022" rx="1" fill="#E6E6E6"/>
</svg>
