<svg width="35" height="31" viewBox="0 0 35 31" fill="none" xmlns="http://www.w3.org/2000/svg">
<path d="M20.0933 1.63599C20.0933 0.945631 19.5336 0.385986 18.8433 0.385986H8.84326C8.15291 0.385986 7.59326 0.945631 7.59326 1.63599V2.88599C7.59326 3.57634 8.15291 4.13599 8.84326 4.13599L15.0933 4.13599C15.7836 4.13599 16.3433 4.69563 16.3433 5.38599V12.886C16.3433 13.5763 15.7836 14.136 15.0933 14.136H8.84326C8.15291 14.136 7.59326 14.6956 7.59326 15.386V16.636C7.59326 17.3263 8.15291 17.886 8.84326 17.886L15.0933 17.886C15.7836 17.886 16.3433 18.4456 16.3433 19.136V25.386C16.3433 26.0763 15.7836 26.636 15.0933 26.636H8.84326C8.15291 26.636 7.59326 27.1956 7.59326 27.886V29.136C7.59326 29.8263 8.15291 30.386 8.84326 30.386H22.5933C23.2836 30.386 23.8433 29.8263 23.8433 29.136V17.5369C23.8433 16.9989 23.499 16.5212 22.9885 16.3511L20.948 15.6709C20.4375 15.5007 20.0933 15.0231 20.0933 14.485V1.63599Z" fill="#E6E6E6"/>
<rect x="30.0933" y="25.6958" width="4.69022" height="4.69022" rx="1" fill="#E6E6E6"/>
</svg>
