<svg width="36" height="31" viewBox="0 0 36 31" fill="none" xmlns="http://www.w3.org/2000/svg">
<path d="M6.8877 1.63599C6.8877 0.94563 7.44734 0.385986 8.1377 0.385986H11.8877C12.5781 0.385986 13.1377 0.94563 13.1377 1.63599V19.136C13.1377 19.8263 13.6973 20.386 14.3877 20.386H18.1377C18.8281 20.386 19.3877 19.8263 19.3877 19.136V15.386C19.3877 14.6956 19.9473 14.136 20.6377 14.136H24.3877C25.0781 14.136 25.6377 14.6956 25.6377 15.386V29.136C25.6377 29.8263 25.0781 30.386 24.3877 30.386H20.6377C19.9473 30.386 19.3877 29.8263 19.3877 29.136V25.386C19.3877 24.6956 18.8281 24.136 18.1377 24.136H8.1377C7.44734 24.136 6.8877 23.5763 6.8877 22.886V1.63599Z" fill="#E6E6E6"/>
<rect x="30.6367" y="25.6958" width="4.69022" height="4.69022" rx="1" fill="#E6E6E6"/>
</svg>
