<svg width="438" height="439" viewBox="0 0 438 439" fill="none" xmlns="http://www.w3.org/2000/svg">
<path fill-rule="evenodd" clip-rule="evenodd" d="M198.819 97.6836C226.056 98.485 228.662 96.4569 255.899 97.1992C256.166 134.084 257.263 170.91 256.276 207.832C255.864 223.212 253.259 239.164 253.878 254.519C253.895 254.936 282.328 254.581 290.805 255.308C268.165 292.598 246.27 330.522 221.789 366.698C198.988 332.957 175.869 291.204 156.735 254.599C164.951 252.362 187.464 252.943 196.142 253.216C198.108 240.426 197.149 227.902 197.609 214.988C198.908 178.593 200.099 134.066 198.819 97.6836Z" stroke="white" stroke-width="4.58579" stroke-miterlimit="1.5" stroke-linecap="round" stroke-linejoin="round"/>
<path d="M237.201 343.113C220.656 332.247 202.082 320.393 186.153 308.649" stroke="white" stroke-width="4.58579" stroke-miterlimit="1.5" stroke-linecap="round" stroke-linejoin="round"/>
<path d="M251.089 321.051C222.333 303.697 189.84 284.365 162.284 265.129" stroke="white" stroke-width="4.58579" stroke-miterlimit="1.5" stroke-linecap="round" stroke-linejoin="round"/>
<path d="M264.186 299.321C240.238 285.032 214.434 268.174 190.91 253.188" stroke="white" stroke-width="4.58579" stroke-miterlimit="1.5" stroke-linecap="round" stroke-linejoin="round"/>
<path d="M253.921 254.544C236.397 245.58 215.196 234.044 197.489 225.487" stroke="white" stroke-width="4.58579" stroke-miterlimit="1.5" stroke-linecap="round" stroke-linejoin="round"/>
<path d="M255.27 223.326C237.604 211.592 216.735 201.653 198.357 191.007" stroke="white" stroke-width="4.58579" stroke-miterlimit="1.5" stroke-linecap="round" stroke-linejoin="round"/>
<path d="M256.55 192.332C239.27 180.176 217.072 169.699 199.176 158.341" stroke="white" stroke-width="4.58579" stroke-miterlimit="1.5" stroke-linecap="round" stroke-linejoin="round"/>
<path d="M256.583 163.103C238.414 152.916 217.669 141.844 199.37 131.876" stroke="white" stroke-width="4.58579" stroke-miterlimit="1.5" stroke-linecap="round" stroke-linejoin="round"/>
<path d="M256.331 134.488C238.661 123.194 218.071 112.528 199.028 103.616" stroke="white" stroke-width="4.58579" stroke-miterlimit="1.5" stroke-linecap="round" stroke-linejoin="round"/>
</svg>
