<svg width="31" height="31" viewBox="0 0 31 31" fill="none" xmlns="http://www.w3.org/2000/svg">
<path fill-rule="evenodd" clip-rule="evenodd" d="M15.6377 3.3313C8.73145 3.3313 3.1377 8.92505 3.1377 15.8313C3.1377 21.3625 6.71582 26.0344 11.6846 27.6907C12.3096 27.8 12.5439 27.425 12.5439 27.0969C12.5439 26.8 12.5283 25.8157 12.5283 24.7688C9.3877 25.3469 8.5752 24.0032 8.3252 23.3C8.18457 22.9407 7.5752 21.8313 7.04395 21.5344C6.60645 21.3 5.98145 20.7219 7.02832 20.7063C8.0127 20.6907 8.71582 21.6125 8.9502 21.9875C10.0752 23.8782 11.8721 23.3469 12.5908 23.0188C12.7002 22.2063 13.0283 21.6594 13.3877 21.3469C10.6064 21.0344 7.7002 19.9563 7.7002 15.175C7.7002 13.8157 8.18457 12.6907 8.98145 11.8157C8.85645 11.5032 8.41895 10.2219 9.10645 8.50317C9.10645 8.50317 10.1533 8.17505 12.5439 9.78442C13.5439 9.50317 14.6064 9.36255 15.6689 9.36255C16.7314 9.36255 17.7939 9.50317 18.7939 9.78442C21.1846 8.15942 22.2314 8.50317 22.2314 8.50317C22.9189 10.2219 22.4814 11.5032 22.3564 11.8157C23.1533 12.6907 23.6377 13.8 23.6377 15.175C23.6377 19.9719 20.7158 21.0344 17.9346 21.3469C18.3877 21.7375 18.7783 22.4875 18.7783 23.6594C18.7783 25.3313 18.7627 26.675 18.7627 27.0969C18.7627 27.425 18.9971 27.8157 19.6221 27.6907C22.1035 26.853 24.2598 25.2581 25.7874 23.1307C27.315 21.0033 28.137 18.4504 28.1377 15.8313C28.1377 8.92505 22.5439 3.3313 15.6377 3.3313Z" fill="#5865F2" fill-opacity="0.53"/>
</svg>
