<svg width="119" height="82" viewBox="0 0 119 82" fill="none" xmlns="http://www.w3.org/2000/svg">
<path d="M3.81765 19.3682C3.62268 19.3717 3.43421 19.375 3.25224 19.3783C3.08327 19.3813 2.9078 19.3844 2.72583 19.3877C2.54386 19.391 2.34889 19.3944 2.14092 19.3982C2.10193 19.3989 2.06932 19.3929 2.04311 19.3804C2.01667 19.3549 1.99023 19.3294 1.96379 19.3038C1.95035 19.2781 1.94319 19.2392 1.9423 19.1872C2.02857 18.1455 2.10835 17.1039 2.18162 16.0624C2.2549 15.0209 2.32817 13.9795 2.40145 12.938C2.47472 11.8965 2.548 10.855 2.62127 9.81355C2.70754 8.77184 2.78732 7.73024 2.86059 6.68877C2.8925 6.27213 2.91869 5.9011 2.93915 5.57569C2.97239 5.23704 2.99373 4.96361 3.00319 4.75541C3.22415 4.75146 3.42562 4.74785 3.60759 4.7446C3.80256 4.74111 3.98453 4.73785 4.1535 4.73483C4.33548 4.73158 4.51095 4.72844 4.67992 4.72541C4.73191 4.72448 4.77113 4.73678 4.79757 4.76232C4.82378 4.77485 4.84361 4.794 4.85705 4.81976C4.88349 4.84529 4.89065 4.88417 4.87854 4.9364C4.79493 6.13408 4.70492 7.33838 4.60853 8.5493C4.52491 9.74699 4.44141 10.9512 4.35801 12.1619C4.2744 13.3595 4.18439 14.5638 4.088 15.7748C4.00438 16.9725 3.91427 18.1703 3.81765 19.3682ZM9.19879 19.2719C9.06881 19.2742 8.97111 19.263 8.90567 19.2381C8.84002 19.2003 8.77392 19.1365 8.70739 19.0467C8.66728 18.9824 8.5873 18.8668 8.46745 18.6999C8.34759 18.533 8.20779 18.3405 8.04805 18.1223C7.88809 17.8911 7.71502 17.6537 7.52884 17.41C7.35544 17.153 7.18876 16.909 7.0288 16.6778C6.82874 16.3823 6.66184 16.1253 6.5281 15.9066C6.40735 15.6878 6.3061 15.4685 6.22435 15.249C6.1556 15.0292 6.09301 14.7897 6.03659 14.5307L5.33471 14.5433L6.61443 12.9601C7.12031 13.6532 7.62629 14.3528 8.13239 15.0588C8.63827 15.7519 9.13764 16.4451 9.63052 17.1383C10.1362 17.8184 10.6487 18.5179 11.168 19.2367C10.947 19.2406 10.739 19.2444 10.5441 19.2478C10.3621 19.2511 10.1671 19.2546 9.95917 19.2583C9.7642 19.2618 9.51074 19.2663 9.19879 19.2719ZM3.88131 13.9452L4.54421 13.9333C4.66998 13.684 4.79619 13.4607 4.92285 13.2634C5.04951 13.0661 5.17639 12.8818 5.30349 12.7105C5.44337 12.526 5.58986 12.3479 5.74296 12.1761C5.89605 12.0043 6.06854 11.8257 6.2604 11.6402C6.50338 11.4019 6.77191 11.137 7.06599 10.8457C7.36007 10.5544 7.67982 10.2431 8.02523 9.91191C8.37064 9.58068 8.72232 9.23633 9.08029 8.87887L11.2051 8.82136C11.2571 8.82043 11.2963 8.83273 11.3228 8.85826C11.349 8.87079 11.3688 8.88994 11.3822 8.9157C11.3955 8.92847 11.4024 8.95435 11.4031 8.99334C11.3907 9.03257 11.3719 9.07192 11.3466 9.11137C11.3342 9.1506 11.2897 9.20991 11.2131 9.28929C10.7652 9.71337 10.3238 10.1308 9.88872 10.5417C9.46665 10.9523 9.04447 11.3564 8.62218 11.754C8.19989 12.1516 7.7841 12.5491 7.37481 12.9465C6.9653 13.3309 6.55589 13.7218 6.1466 14.1192C5.75009 14.5033 5.34707 14.8876 4.93756 15.272C4.54104 15.6561 4.13164 16.047 3.70935 16.4446L3.88131 13.9452ZM24.3156 8.3918C24.9915 8.37971 25.5978 8.47938 26.1344 8.69081C26.6841 8.90202 27.1442 9.19933 27.5148 9.58277C27.8854 9.9662 28.1597 10.4229 28.3378 10.9528C28.5288 11.4824 28.5974 12.0728 28.5435 12.7239L28.4227 14.7934C28.3598 15.6786 28.1259 16.4499 27.721 17.1073C27.3161 17.7646 26.7788 18.2813 26.1092 18.6574C25.4392 19.0204 24.6559 19.2099 23.759 19.226C23.0831 19.2381 22.4704 19.145 21.921 18.9468C21.3713 18.7356 20.9047 18.4384 20.5211 18.0552C20.1503 17.6588 19.8759 17.1956 19.6978 16.6657C19.5198 16.1358 19.4512 15.5454 19.4921 14.8946L19.6327 12.8443C19.6952 11.933 19.929 11.1552 20.3341 10.5108C20.739 9.8535 21.2828 9.34319 21.9658 8.97992C22.6484 8.60365 23.4317 8.40761 24.3156 8.3918ZM24.3253 10.1079C23.7534 10.1181 23.2614 10.2374 22.8492 10.4659C22.45 10.694 22.1369 11.0117 21.9098 11.4188C21.6957 11.8257 21.5672 12.2961 21.5243 12.8299L21.3635 14.8416C21.3314 15.2453 21.3639 15.6282 21.4611 15.9906C21.5583 16.3529 21.7324 16.6553 21.9836 16.8979C22.1821 17.1023 22.4253 17.2605 22.7133 17.3724C23.014 17.471 23.3528 17.517 23.7298 17.5102C24.3017 17.5 24.7872 17.3808 25.1864 17.1526C25.5853 16.9114 25.8919 16.5874 26.106 16.1805C26.3331 15.7734 26.4682 15.3094 26.5113 14.7885L26.6724 12.7963C26.7039 12.3537 26.671 11.9512 26.5738 11.5889C26.4767 11.2266 26.3025 10.9242 26.0513 10.6816C25.853 10.4901 25.61 10.345 25.3223 10.2461C25.0346 10.1472 24.7022 10.1012 24.3253 10.1079ZM45.4867 18.6228C45.1878 18.6281 44.9018 18.6332 44.6289 18.6381C44.3689 18.6428 44.083 18.6479 43.771 18.6535C43.732 18.6542 43.6994 18.6482 43.6732 18.6357C43.6468 18.6102 43.6203 18.5846 43.5939 18.5591C43.5804 18.5333 43.5798 18.4944 43.5919 18.4421C43.6436 17.6611 43.6953 16.88 43.747 16.099C43.7987 15.3179 43.8504 14.5369 43.9021 13.7558C43.9668 12.9745 44.0252 12.1999 44.0771 11.4318C44.1202 10.911 44.0291 10.5225 43.8037 10.2665C43.5911 9.99729 43.2573 9.86674 42.8024 9.87488C42.5424 9.87953 42.2702 9.92991 41.9858 10.026C41.7014 10.1221 41.4113 10.2638 41.1155 10.4511C40.8194 10.6255 40.5177 10.8519 40.2104 11.1304C39.9159 11.3958 39.6093 11.7198 39.2908 12.1025L39.4123 10.072L40.0557 10.0605C40.3737 9.65178 40.7058 9.30129 41.0519 9.00905C41.411 8.71658 41.7906 8.48875 42.1909 8.32557C42.591 8.14939 43.012 8.05734 43.4539 8.04944C43.8958 8.04153 44.2806 8.11266 44.6082 8.26282C44.9486 8.39976 45.2251 8.60285 45.4377 8.87209C45.6631 9.1281 45.8244 9.43726 45.9216 9.79958C46.0317 10.1617 46.0709 10.551 46.039 10.9677C45.9978 11.6055 45.9502 12.2435 45.896 12.8815C45.8547 13.5064 45.8069 14.1378 45.7528 14.7759C45.7114 15.4007 45.67 16.0256 45.6287 16.6504C45.6084 16.9888 45.5816 17.3209 45.5481 17.6465C45.5274 17.9589 45.507 18.2843 45.4867 18.6228ZM39.1308 18.7365C38.9358 18.74 38.7473 18.7433 38.5654 18.7466C38.3834 18.7498 38.1949 18.7532 37.9999 18.7567C37.818 18.7599 37.623 18.7634 37.415 18.7672C37.389 18.7676 37.363 18.7681 37.3371 18.7686C37.3108 18.756 37.2846 18.7435 37.2584 18.731C37.245 18.7052 37.2315 18.6794 37.2181 18.6537C37.2176 18.6277 37.2171 18.5952 37.2164 18.5562C37.2697 17.8661 37.3229 17.1761 37.3762 16.486C37.4294 15.7959 37.4763 15.1125 37.5168 14.4356C37.57 13.7456 37.6233 13.0555 37.6766 12.3655C37.7298 11.6754 37.7766 10.9854 37.8168 10.2956C37.849 9.89198 37.8753 9.52745 37.8957 9.20203C37.929 8.86338 37.9502 8.58346 37.9594 8.36226C38.1804 8.35831 38.3819 8.3547 38.5638 8.35145C38.7588 8.34796 38.9473 8.34459 39.1292 8.34133C39.3112 8.33808 39.4932 8.33482 39.6752 8.33157C39.7271 8.33064 39.7664 8.34294 39.7928 8.36847C39.819 8.381 39.8388 8.40015 39.8523 8.42591C39.8657 8.45168 39.873 8.49706 39.8741 8.56205C39.7892 9.68174 39.7043 10.8079 39.6196 11.9406C39.5349 13.0733 39.4502 14.206 39.3654 15.3387C39.2937 16.4712 39.2155 17.6038 39.1308 18.7365ZM55.1676 8.05443L63.4537 7.9062C63.5187 7.90503 63.5645 7.92372 63.5912 7.96225C63.6309 8.00055 63.6512 8.05219 63.6523 8.11718C63.6422 8.28639 63.632 8.4491 63.6217 8.60531C63.6113 8.76152 63.601 8.91773 63.5906 9.07394C63.5803 9.23015 63.5636 9.39297 63.5404 9.56241L55.2543 9.71064C55.2283 9.71111 55.2023 9.71157 55.1763 9.71204C55.1501 9.6995 55.1238 9.68697 55.0976 9.67444C55.0842 9.64867 55.0708 9.62291 55.0573 9.59715C55.0569 9.57115 55.0563 9.53865 55.0557 9.49966C55.0658 9.33045 55.076 9.16774 55.0863 9.01153C55.1097 8.85509 55.1265 8.69876 55.1369 8.54255C55.1472 8.38634 55.1574 8.22364 55.1676 8.05443ZM63.0368 16.6315C63.015 16.879 62.9932 17.1264 62.9714 17.3738C62.9624 17.608 62.947 17.8488 62.9252 18.0963C62.9263 18.1613 62.9077 18.2136 62.8693 18.2533C62.831 18.293 62.7729 18.3135 62.6949 18.3149C62.6559 18.3156 62.5714 18.3171 62.4414 18.3195C62.3114 18.3218 62.149 18.3247 61.954 18.3282C61.772 18.3314 61.5901 18.3347 61.4081 18.338C61.2391 18.341 61.0831 18.3438 60.9402 18.3463C60.3682 18.3566 59.8407 18.301 59.3576 18.1796C58.8872 18.045 58.4804 17.8247 58.1372 17.5188C57.8069 17.2127 57.5595 16.8075 57.3949 16.3034C57.2432 15.799 57.1871 15.1759 57.2265 14.4341C57.2804 13.7831 57.3279 13.1386 57.3691 12.5008C57.423 11.8497 57.4705 11.2052 57.5117 10.5674C57.5528 9.92956 57.594 9.29173 57.6351 8.65389C57.689 8.00282 57.7365 7.35187 57.7774 6.70103C57.8108 6.37538 57.8378 6.04985 57.8583 5.72443C57.8787 5.39901 57.8992 5.07359 57.9196 4.74818C58.2056 4.74306 58.4851 4.73806 58.758 4.73318C59.044 4.72806 59.3234 4.72306 59.5964 4.71818C59.6484 4.71725 59.6876 4.72955 59.714 4.75508C59.7402 4.76762 59.7601 4.78676 59.7735 4.81253C59.8 4.83806 59.8071 4.87694 59.795 4.92916C59.7433 5.71021 59.6851 6.49138 59.6204 7.27266C59.5687 8.05371 59.5106 8.84137 59.4461 9.63565C59.3946 10.4297 59.343 11.2173 59.2913 11.9983C59.2396 12.7793 59.1815 13.567 59.117 14.3613C59.086 14.8299 59.0991 15.2198 59.1564 15.5308C59.2135 15.8288 59.3346 16.0672 59.5197 16.2459C59.6915 16.4118 59.908 16.525 60.1691 16.5853C60.4301 16.6457 60.7556 16.6724 61.1456 16.6654C61.3015 16.6626 61.4705 16.6596 61.6525 16.6563C61.8474 16.6528 62.0359 16.6495 62.2179 16.6462C62.3999 16.6429 62.5753 16.6398 62.7443 16.6368L63.0368 16.6315ZM80.8816 11.339C80.8492 11.7297 80.8166 12.1008 80.7835 12.4525C80.7635 12.8039 80.7434 13.1488 80.7232 13.4872C80.7029 13.8256 80.6826 14.1575 80.6621 14.483C80.6414 14.7954 80.6208 15.1143 80.6004 15.4397C80.5905 15.6219 80.5931 15.7779 80.6084 15.9076C80.6363 16.0242 80.6899 16.1142 80.769 16.1778C80.8219 16.2289 80.8875 16.2667 80.9659 16.2913C81.0574 16.3157 81.1551 16.3269 81.2591 16.3251C81.298 16.3244 81.3305 16.3238 81.3565 16.3233C81.3955 16.3226 81.428 16.3221 81.454 16.3216L81.766 16.316C81.7572 16.5632 81.7418 16.804 81.7198 17.0385C81.6978 17.2729 81.6824 17.5137 81.6736 17.7609C81.6619 17.8391 81.6369 17.8981 81.5986 17.9378C81.56 17.9645 81.5082 17.9784 81.4433 17.9795C81.3783 17.9807 81.2808 17.9825 81.1508 17.9848C81.0208 17.9871 80.9038 17.9892 80.7999 17.9911C80.4619 17.9971 80.1557 17.9571 79.8812 17.871C79.6195 17.7716 79.3896 17.6327 79.1915 17.4542C79.0062 17.2625 78.8657 17.031 78.7701 16.7597C78.6875 16.4881 78.6562 16.1766 78.6762 15.8252C78.7072 15.3566 78.7446 14.8813 78.7884 14.3995C78.832 13.9046 78.8693 13.4229 78.9003 12.9542C78.91 12.759 78.9197 12.5638 78.9293 12.3686C78.939 12.1734 78.9487 11.9782 78.9584 11.783C78.981 11.5876 78.9972 11.3922 79.0069 11.197C79.0375 10.7024 78.9853 10.3133 78.8505 10.0297C78.7284 9.73279 78.4973 9.52239 78.1572 9.39845C77.83 9.27428 77.374 9.21743 76.789 9.22789C76.3861 9.2351 76.0095 9.26134 75.6592 9.30662C75.3089 9.35189 74.9655 9.41654 74.6289 9.50057C74.3053 9.58438 73.9691 9.69441 73.6204 9.83067L73.3084 9.83625C73.3302 9.58882 73.3455 9.3415 73.3543 9.09431C73.3761 8.84688 73.3915 8.60606 73.4005 8.37187C73.4128 8.33264 73.4253 8.29991 73.4378 8.27368C73.4501 8.23446 73.4626 8.20173 73.4751 8.1755C73.552 8.10911 73.7521 8.02102 74.0752 7.91122C74.4114 7.80119 74.8193 7.70288 75.2989 7.61629C75.7785 7.5297 76.2717 7.48187 76.7787 7.4728C77.5325 7.45931 78.1773 7.52579 78.7128 7.67224C79.2614 7.81845 79.7009 8.05112 80.0314 8.37027C80.3619 8.68941 80.5963 9.09478 80.7347 9.58638C80.8859 10.0648 80.9348 10.649 80.8816 11.339ZM74.1426 15.3017C74.1107 15.7183 74.2007 16.0418 74.4127 16.272C74.6244 16.4893 74.9707 16.5936 75.4516 16.585C75.8936 16.5771 76.3085 16.5112 76.6965 16.3872C77.0972 16.25 77.4902 16.0414 77.8755 15.7615C78.2608 15.4816 78.664 15.1103 79.0852 14.6477L79.0364 16.3648L78.432 16.3756C78.2047 16.7698 77.9244 17.1063 77.5911 17.3854C77.2578 17.6644 76.878 17.8857 76.4517 18.0493C76.0252 18.2 75.552 18.28 75.0321 18.2893C74.4082 18.3004 73.8798 18.1929 73.4469 17.9666C73.0267 17.727 72.709 17.3947 72.4938 16.9695C72.2915 16.544 72.2051 16.0515 72.2346 15.4919L72.3003 14.7691C72.3322 14.3524 72.4235 13.9867 72.5741 13.672C72.7376 13.344 72.9539 13.0671 73.2231 12.8413C73.505 12.6022 73.84 12.4207 74.2279 12.2967C74.6159 12.1727 75.0503 12.1065 75.5312 12.0978C75.9602 12.0902 76.3826 12.0826 76.7985 12.0752C77.2275 12.0675 77.6499 12.0599 78.0658 12.0525C78.4818 12.0451 78.8912 12.0377 79.2941 12.0305C79.3981 12.0287 79.4708 12.0989 79.5123 12.2412C79.5667 12.3832 79.5956 12.5517 79.5989 12.7467C79.6022 12.9417 79.5925 13.1369 79.5698 13.3323C79.1149 13.3405 78.6925 13.348 78.3025 13.355C77.9126 13.362 77.5097 13.3692 77.0937 13.3766C76.6908 13.3838 76.2424 13.3918 75.7485 13.4007C75.4625 13.4058 75.2161 13.4427 75.0092 13.5114C74.8152 13.5669 74.6542 13.6608 74.5265 13.7931C74.4243 13.8989 74.3419 14.0239 74.2793 14.1681C74.2298 14.312 74.1999 14.4685 74.1898 14.6377L74.1426 15.3017ZM92.0029 17.7906C91.808 17.7941 91.6195 17.7975 91.4375 17.8008C91.2686 17.8038 91.0931 17.8069 90.9111 17.8102C90.7292 17.8134 90.5342 17.8169 90.3262 17.8206C90.2872 17.8213 90.2546 17.8154 90.2284 17.8029C90.202 17.7774 90.1755 17.7518 90.1491 17.7263C90.1356 17.7005 90.1285 17.6617 90.1276 17.6097C90.2139 16.568 90.2936 15.5264 90.3669 14.4849C90.4402 13.4434 90.5135 12.4019 90.5867 11.3605C90.66 10.319 90.7333 9.2775 90.8066 8.23602C90.8928 7.19431 90.9726 6.15272 91.0459 5.11124C91.0778 4.6946 91.104 4.32358 91.1244 3.99816C91.1577 3.65951 91.179 3.38608 91.1885 3.17788C91.4095 3.17393 91.6109 3.17032 91.7929 3.16707C91.9879 3.16358 92.1698 3.16033 92.3388 3.1573C92.5208 3.15405 92.6962 3.15091 92.8652 3.14789C92.9172 3.14696 92.9564 3.15926 92.9829 3.18479C93.0091 3.19732 93.0289 3.21647 93.0423 3.24223C93.0688 3.26777 93.076 3.30664 93.0638 3.35887C92.9802 4.55656 92.8902 5.76086 92.7938 6.97177C92.7102 8.16946 92.6267 9.37365 92.5433 10.5843C92.4597 11.782 92.3697 12.9863 92.2733 14.1972C92.1897 15.3949 92.0996 16.5927 92.0029 17.7906ZM97.3841 17.6944C97.2541 17.6967 97.1564 17.6855 97.091 17.6606C97.0253 17.6228 96.9592 17.559 96.8927 17.4691C96.8526 17.4048 96.7726 17.2893 96.6527 17.1224C96.5329 16.9555 96.3931 16.763 96.2333 16.5448C96.0734 16.3136 95.9003 16.0762 95.7141 15.8325C95.5407 15.5755 95.3741 15.3315 95.2141 15.1003C95.014 14.8048 94.8471 14.5478 94.7134 14.3291C94.5926 14.1102 94.4914 13.891 94.4097 13.6714C94.3409 13.4516 94.2783 13.2122 94.2219 12.9532L93.52 12.9657L94.7997 11.3826C95.3056 12.0757 95.8116 12.7752 96.3177 13.4813C96.8236 14.1743 97.3229 14.8675 97.8158 15.5608C98.3215 16.2409 98.834 16.9403 99.3533 17.6592C99.1323 17.6631 98.9243 17.6668 98.7294 17.6703C98.5474 17.6736 98.3524 17.6771 98.1445 17.6808C97.9495 17.6843 97.696 17.6888 97.3841 17.6944ZM92.0666 12.3676L92.7295 12.3558C92.8553 12.1065 92.9815 11.8832 93.1081 11.6859C93.2348 11.4886 93.3617 11.3043 93.4888 11.133C93.6287 10.9485 93.7752 10.7703 93.9283 10.5986C94.0813 10.4268 94.2538 10.2482 94.4457 10.0627C94.6887 9.82434 94.9572 9.55949 95.2513 9.26819C95.5454 8.97688 95.8651 8.66561 96.2105 8.33438C96.5559 8.00315 96.9076 7.6588 97.2656 7.30134L99.3904 7.24383C99.4424 7.2429 99.4816 7.2552 99.5081 7.28073C99.5343 7.29327 99.5541 7.31241 99.5675 7.33818C99.5808 7.35094 99.5877 7.37682 99.5884 7.41582C99.576 7.45505 99.5572 7.49439 99.5319 7.53385C99.5195 7.57307 99.475 7.63238 99.3984 7.71176C98.9505 8.13584 98.5091 8.5533 98.074 8.96415C97.6519 9.37477 97.2298 9.77888 96.8075 10.1765C96.3852 10.5741 95.9694 10.9716 95.5601 11.369C95.1506 11.7534 94.7412 12.1443 94.3319 12.5417C93.9354 12.9258 93.5324 13.3101 93.1229 13.6945C92.7263 14.0786 92.3169 14.4695 91.8946 14.8671L92.0666 12.3676ZM108.079 7.10791L116.365 6.95968C116.43 6.95852 116.476 6.9772 116.502 7.01573C116.542 7.05403 116.562 7.10567 116.564 7.17066C116.553 7.33987 116.543 7.50258 116.533 7.65879C116.522 7.815 116.512 7.97121 116.502 8.12742C116.491 8.28363 116.475 8.44645 116.452 8.6159L108.165 8.76413C108.139 8.76459 108.113 8.76506 108.087 8.76552C108.061 8.75299 108.035 8.74045 108.009 8.72792C107.995 8.70216 107.982 8.67639 107.968 8.65063C107.968 8.62463 107.967 8.59214 107.967 8.55314C107.977 8.38394 107.987 8.22123 107.998 8.06502C108.021 7.90857 108.038 7.75225 108.048 7.59604C108.058 7.43983 108.069 7.27712 108.079 7.10791ZM115.948 15.685C115.926 15.9325 115.904 16.1799 115.883 16.4273C115.874 16.6615 115.858 16.9023 115.836 17.1498C115.837 17.2148 115.819 17.2671 115.781 17.3068C115.742 17.3465 115.684 17.367 115.606 17.3684C115.567 17.3691 115.483 17.3706 115.353 17.373C115.223 17.3753 115.06 17.3782 114.865 17.3817C114.683 17.3849 114.501 17.3882 114.319 17.3914C114.15 17.3945 113.994 17.3972 113.851 17.3998C113.279 17.41 112.752 17.3545 112.269 17.2331C111.798 17.0985 111.392 16.8782 111.048 16.5723C110.718 16.2662 110.471 15.861 110.306 15.3569C110.154 14.8525 110.098 14.2294 110.138 13.4876C110.192 12.8365 110.239 12.1921 110.28 11.5542C110.334 10.9032 110.382 10.2587 110.423 9.62089C110.464 8.98305 110.505 8.34521 110.546 7.70737C110.6 7.0563 110.648 6.40535 110.689 5.75452C110.722 5.42887 110.749 5.10333 110.769 4.77791C110.79 4.4525 110.81 4.12708 110.831 3.80166C111.117 3.79654 111.396 3.79155 111.669 3.78666C111.955 3.78155 112.235 3.77655 112.508 3.77167C112.56 3.77074 112.599 3.78304 112.625 3.80857C112.651 3.8211 112.671 3.84025 112.685 3.86601C112.711 3.89154 112.718 3.93042 112.706 3.98265C112.654 4.7637 112.596 5.54486 112.532 6.32614C112.48 7.10719 112.422 7.89486 112.357 8.68914C112.306 9.48319 112.254 10.2707 112.202 11.0518C112.151 11.8328 112.093 12.6205 112.028 13.4148C111.997 13.8834 112.01 14.2732 112.068 14.5843C112.125 14.8823 112.246 15.1207 112.431 15.2994C112.603 15.4653 112.819 15.5785 113.08 15.6388C113.341 15.6992 113.667 15.7258 114.057 15.7189C114.213 15.7161 114.382 15.7131 114.564 15.7098C114.759 15.7063 114.947 15.7029 115.129 15.6997C115.311 15.6964 115.487 15.6933 115.655 15.6903L115.948 15.685Z" fill="#1E9BD1"/>
<path d="M61.0236 37.3344C60.9017 34.8473 61.0236 29.5301 61.0236 27.807M25.7199 28.6237L36.8809 28.3945M45.4232 27.8858L51.2837 27.8858M69.746 27.2533L72.353 27.2533L76.2089 27.1843M84.7073 27.0465L90.2957 26.9775L95.8841 26.9085M102.946 26.7705L108.534 26.7015L114.123 26.6325M4.46198 28.8529L15.6231 28.6237" stroke="#1E9BD1" stroke-width="4.0906" stroke-miterlimit="1.5" stroke-linecap="round" stroke-linejoin="round"/>
<path d="M62.8636 79.031C61.2769 69.2261 60.1432 66.8382 50.1307 59.7582M62.8636 79.031C62.6513 70.2124 65.6762 63.9864 73.5735 59.4727M62.8636 79.031C62.3675 72.1752 61.4062 55.8605 61.5297 45.4481" stroke="#1E9BD1" stroke-width="4.0906" stroke-miterlimit="1.5" stroke-linecap="round" stroke-linejoin="round"/>
</svg>
