<svg width="36" height="35" viewBox="0 0 36 35" fill="none" xmlns="http://www.w3.org/2000/svg">
<path d="M30.6289 6.30515V28.6949C30.6289 29.2068 30.4256 29.6977 30.0636 30.0597C29.7016 30.4216 29.2107 30.625 28.6988 30.625H6.30905C5.79715 30.625 5.30621 30.4216 4.94423 30.0597C4.58226 29.6977 4.37891 29.2068 4.37891 28.6949V6.30515C4.37891 5.79324 4.58226 5.3023 4.94423 4.94033C5.30621 4.57835 5.79715 4.375 6.30905 4.375H28.6988C29.2107 4.375 29.7016 4.57835 30.0636 4.94033C30.4256 5.3023 30.6289 5.79324 30.6289 6.30515ZM12.0995 14.4118H8.2392V26.7647H12.0995V14.4118ZM12.4469 10.1654C12.449 9.87344 12.3935 9.5839 12.2836 9.31335C12.1737 9.0428 12.0116 8.79654 11.8066 8.58863C11.6016 8.38072 11.3576 8.21524 11.0886 8.10162C10.8196 7.98801 10.5308 7.92849 10.2388 7.92647H10.1693C9.57554 7.92647 9.00604 8.16236 8.58616 8.58225C8.16627 9.00214 7.93038 9.57163 7.93038 10.1654C7.93038 10.7593 8.16627 11.3287 8.58616 11.7486C9.00604 12.1685 9.57554 12.4044 10.1693 12.4044C10.4614 12.4116 10.7519 12.3612 11.0245 12.256C11.297 12.1509 11.5461 11.993 11.7576 11.7916C11.9691 11.5901 12.1389 11.3489 12.2572 11.0818C12.3754 10.8147 12.4399 10.527 12.4469 10.2349V10.1654ZM26.7686 19.2603C26.7686 15.5467 24.4061 14.1029 22.0591 14.1029C21.2906 14.0645 20.5254 14.2281 19.84 14.5777C19.1545 14.9272 18.5726 15.4503 18.1524 16.0949H18.0443V14.4118H14.4157V26.7647H18.276V20.1945C18.2202 19.5216 18.4321 18.8538 18.8658 18.3363C19.2995 17.8188 19.9199 17.4933 20.5921 17.4305H20.7388C21.9664 17.4305 22.8774 18.2026 22.8774 20.1482V26.7647H26.7377L26.7686 19.2603Z" fill="#636363" fill-opacity="0.44"/>
</svg>
