<svg width="25" height="25" viewBox="0 0 25 25" fill="none" xmlns="http://www.w3.org/2000/svg">
<path d="M24.8125 1.96661V22.4372C24.8125 22.9052 24.6266 23.3541 24.2956 23.685C23.9647 24.016 23.5158 24.2019 23.0478 24.2019H2.57721C2.10918 24.2019 1.66032 24.016 1.32937 23.685C0.998424 23.3541 0.8125 22.9052 0.8125 22.4372L0.8125 1.96661C0.8125 1.49858 0.998424 1.04972 1.32937 0.718775C1.66032 0.387828 2.10918 0.201904 2.57721 0.201904L23.0478 0.201904C23.5158 0.201904 23.9647 0.387828 24.2956 0.718775C24.6266 1.04972 24.8125 1.49858 24.8125 1.96661ZM7.87132 9.37838H4.34191V20.6725H7.87132V9.37838ZM8.18897 5.49602C8.19083 5.22905 8.14009 4.96433 8.03964 4.71697C7.93919 4.46961 7.791 4.24445 7.60353 4.05437C7.41607 3.86428 7.19299 3.71298 6.94705 3.6091C6.70111 3.50523 6.43712 3.45081 6.17015 3.44896H6.10662C5.5637 3.44896 5.04303 3.66463 4.65913 4.04853C4.27523 4.43243 4.05956 4.95311 4.05956 5.49602C4.05956 6.03894 4.27523 6.55961 4.65913 6.94351C5.04303 7.32741 5.5637 7.54308 6.10662 7.54308C6.37361 7.54965 6.63928 7.50355 6.88844 7.4074C7.13761 7.31126 7.36539 7.16697 7.55877 6.98277C7.75215 6.79856 7.90734 6.57806 8.01547 6.33386C8.1236 6.08966 8.18256 5.82655 8.18897 5.55955V5.49602ZM21.2831 13.8113C21.2831 10.416 19.1231 9.09602 16.9772 9.09602C16.2746 9.06084 15.5751 9.21049 14.9483 9.53004C14.3216 9.8496 13.7896 10.3279 13.4054 10.9172H13.3066V9.37838H9.98897V20.6725H13.5184V14.6654C13.4674 14.0502 13.6612 13.4397 14.0577 12.9665C14.4542 12.4934 15.0214 12.1958 15.636 12.1384H15.7701C16.8925 12.1384 17.7254 12.8443 17.7254 14.6231V20.6725H21.2549L21.2831 13.8113Z" fill="#1E9BD1"/>
</svg>
