<svg width="120" height="82" viewBox="0 0 120 82" fill="none" xmlns="http://www.w3.org/2000/svg">
<path d="M3.48104 9.63444C3.69435 9.63072 3.89431 9.62723 4.08095 9.62397C4.26759 9.62071 4.45423 9.61746 4.64087 9.6142C4.84084 9.61071 5.03414 9.60733 5.22078 9.60408C5.2741 9.60315 5.31433 9.61578 5.34146 9.64198C5.36835 9.65484 5.38882 9.68116 5.40285 9.72092C5.42997 9.74711 5.43734 9.78699 5.42494 9.84055C5.339 11.0289 5.25329 12.2306 5.16781 13.4456C5.08211 14.6473 4.99652 15.8556 4.91104 17.0706C4.82533 18.2723 4.73963 19.474 4.65392 20.6757C4.56821 21.8773 4.4825 23.079 4.3968 24.2807C4.19683 24.2842 3.99686 24.2877 3.79689 24.2912C3.61025 24.2944 3.42361 24.2977 3.23697 24.3009C3.05033 24.3042 2.85703 24.3076 2.65706 24.3111C2.61707 24.3118 2.57684 24.2991 2.53638 24.2732C2.50949 24.2603 2.48236 24.2341 2.455 24.1946C2.4412 24.1681 2.44062 24.1348 2.45325 24.0946C2.52842 23.0531 2.60359 22.0116 2.67876 20.9702C2.75416 19.942 2.8229 18.914 2.88497 17.8861C2.96013 16.8446 3.0353 15.8032 3.11047 14.7617C3.19897 13.72 3.28092 12.6851 3.35632 11.6569C3.37694 11.3098 3.39766 10.9694 3.41851 10.6357C3.43935 10.3019 3.4602 9.96819 3.48104 9.63444ZM8.79639 9.32163C9.51628 9.30907 10.1258 9.46512 10.6248 9.78979C11.1373 10.1142 11.5188 10.581 11.7695 11.19C12.0199 11.7857 12.1123 12.4976 12.0468 13.3255L11.8588 16.3092C11.8171 16.9767 11.694 17.5656 11.4896 18.076C11.2985 18.586 11.0392 19.0106 10.7117 19.3497C10.3976 19.6886 10.0287 19.9484 9.60514 20.1292C9.18156 20.3099 8.70981 20.4048 8.18989 20.4139C7.73662 20.4218 7.31553 20.3625 6.92659 20.2359C6.55122 20.1225 6.20801 19.9418 5.89697 19.6938C5.58593 19.4459 5.31419 19.1572 5.08174 18.8279L4.52182 18.8377L4.64829 16.9152C5.08536 17.5076 5.55297 17.9395 6.05112 18.2109C6.56236 18.4687 7.11127 18.5925 7.69785 18.5822C8.12445 18.5748 8.49621 18.4816 8.81314 18.3027C9.12983 18.1105 9.37836 17.8328 9.55871 17.4696C9.75217 17.0928 9.8709 16.6373 9.91492 16.1031L10.1099 13.5193C10.1422 13.0787 10.1157 12.7058 10.0303 12.4006C9.94474 12.082 9.80701 11.831 9.61711 11.6477C9.45435 11.4905 9.25228 11.374 9.01092 11.2982C8.78289 11.2222 8.51557 11.1868 8.20895 11.1922C7.83567 11.1987 7.45724 11.292 7.07366 11.472C6.70318 11.6385 6.33432 11.8983 5.9671 12.2515C5.6132 12.6044 5.2545 13.064 4.891 13.6304L5.07048 11.307L5.63039 11.2972C5.89004 10.8926 6.17739 10.5475 6.49246 10.262C6.80752 9.97644 7.15696 9.75031 7.54077 9.58358C7.92459 9.41686 8.34313 9.32954 8.79639 9.32163ZM20.0379 18.9269L20.1019 18.0056C20.1115 17.7921 20.1211 17.5786 20.1307 17.365C20.1536 17.1513 20.1699 16.9376 20.1795 16.7241C20.2022 16.497 20.2184 16.2767 20.228 16.0631C20.2715 15.5023 20.3152 14.9481 20.359 14.4006C20.4025 13.8398 20.4394 13.279 20.4696 12.7184C20.5132 12.1576 20.5567 11.5967 20.6003 11.0359L20.2803 11.0415C19.9737 11.0468 19.6604 11.0523 19.3405 11.0579C19.0339 11.0632 18.7272 11.0686 18.4206 11.0739C18.354 11.0751 18.3003 11.056 18.2596 11.0167C18.2322 10.9772 18.218 10.9241 18.2168 10.8575C18.2393 10.617 18.2551 10.3767 18.2642 10.1365C18.2867 9.89609 18.309 9.64233 18.331 9.37524C18.5043 9.37221 18.6842 9.36907 18.8709 9.36581C19.0709 9.36232 19.2708 9.35883 19.4708 9.35534C19.6708 9.35185 19.8774 9.34824 20.0907 9.34452C20.304 9.3408 20.5173 9.33707 20.7306 9.33335C20.9572 9.3294 21.1772 9.32556 21.3905 9.32183C21.6171 9.31788 21.8371 9.31404 22.0504 9.31031C22.0504 9.31031 22.0648 9.37007 22.0935 9.48959C22.1223 9.60911 22.1517 9.76862 22.1819 9.96812C22.2252 10.1541 22.2686 10.3533 22.3124 10.5659C22.3558 10.7652 22.3925 10.9579 22.4225 11.1441C22.4657 11.33 22.4883 11.4763 22.4901 11.583C22.4463 12.1305 22.403 12.7047 22.3602 13.3055C22.3173 13.9064 22.2748 14.5272 22.2327 15.168C22.1905 15.8089 22.1485 16.4564 22.1065 17.1105C22.0644 17.7514 22.022 18.3789 21.9794 18.993L20.0379 18.9269ZM22.0243 11.2511L22.6842 11.2395C23.1391 10.5648 23.6633 10.0356 24.2567 9.65186C24.8499 9.25478 25.5197 9.04973 26.2663 9.0367C26.6395 9.03018 26.9267 9.05851 27.1279 9.12167C27.3421 9.17127 27.4899 9.23537 27.5713 9.31396C27.5984 9.34016 27.619 9.37314 27.633 9.4129C27.6468 9.43933 27.6477 9.48599 27.6355 9.55288C27.6139 9.84663 27.5923 10.1337 27.5705 10.4141C27.5618 10.681 27.5401 10.9614 27.5052 11.2554L27.1852 11.261C26.9705 11.1847 26.7563 11.1351 26.5425 11.1122C26.3285 11.0759 26.0816 11.0602 25.8016 11.0651C25.415 11.0719 25.0161 11.1388 24.6049 11.266C24.2068 11.3797 23.7969 11.5802 23.3752 11.8676C22.9535 12.155 22.5072 12.5628 22.0364 13.0911L22.0243 11.2511ZM17.5075 18.351L25.5263 18.211C25.5796 18.2101 25.6198 18.2227 25.6469 18.2489C25.6738 18.2618 25.6943 18.2881 25.7083 18.3278C25.7221 18.3543 25.7294 18.3875 25.7301 18.4275C25.7198 18.601 25.7093 18.7679 25.6988 18.9281C25.6883 19.0883 25.6777 19.2485 25.6672 19.4087C25.6567 19.5689 25.6396 19.7359 25.6159 19.9097L17.6371 20.049C17.5572 20.0504 17.4968 20.0314 17.4561 19.9921C17.4154 19.9528 17.4012 19.8997 17.4133 19.8328C17.4236 19.6593 17.4341 19.4924 17.4446 19.3322C17.4551 19.172 17.4657 19.0118 17.4762 18.8516C17.4868 18.6914 17.4972 18.5245 17.5075 18.351ZM37.7564 8.81613C38.4496 8.80403 39.0715 8.90653 39.622 9.12362C40.1859 9.34048 40.6579 9.64562 41.0382 10.039C41.4185 10.4325 41.7 10.901 41.8829 11.4445C42.079 11.9878 42.1496 12.5934 42.0946 13.2611L41.9716 15.3836C41.9075 16.2915 41.6679 17.0825 41.2529 17.7565C40.838 18.4305 40.2871 18.9602 39.6004 19.3456C38.9135 19.7176 38.1101 19.9116 37.1902 19.9277C36.497 19.9398 35.8685 19.8441 35.3049 19.6406C34.741 19.4237 34.2623 19.1187 33.8687 18.7255C33.4882 18.3187 33.2065 17.8436 33.0237 17.3C32.8409 16.7565 32.7703 16.1509 32.812 15.4834L32.9553 13.3806C33.019 12.446 33.2584 11.6484 33.6736 10.9877C34.0886 10.3137 34.6462 9.79056 35.3465 9.41828C36.0465 9.03267 36.8498 8.83196 37.7564 8.81613ZM37.7671 10.5762C37.1805 10.5865 36.6759 10.7086 36.2532 10.9427C35.8439 11.1765 35.5229 11.5022 35.2901 11.9196C35.0707 12.3369 34.9391 12.8192 34.8953 13.3668L34.7313 15.4299C34.6985 15.8439 34.7321 16.2367 34.8319 16.6084C34.9317 16.98 35.1105 17.2903 35.3682 17.5391C35.5719 17.7489 35.8215 17.9113 36.1168 18.0261C36.4253 18.1274 36.7729 18.1747 37.1595 18.168C37.7461 18.1577 38.244 18.0357 38.6533 17.8018C39.0624 17.5547 39.3766 17.2225 39.5961 16.8052C39.8288 16.3878 39.9672 15.912 40.0112 15.3778L40.1756 13.3346C40.2077 12.8806 40.1738 12.4678 40.074 12.0962C39.9741 11.7245 39.7953 11.4143 39.5376 11.1654C39.3342 10.9689 39.0849 10.8199 38.7897 10.7184C38.4946 10.6169 38.1537 10.5695 37.7671 10.5762ZM55.4497 8.72733C55.4897 8.72663 55.5232 8.73938 55.5504 8.76558C55.5906 8.77821 55.6177 8.80441 55.6318 8.84417C55.6455 8.8706 55.6528 8.90381 55.6535 8.9438C55.5987 9.62486 55.5435 10.2793 55.4877 10.907C55.4451 11.5212 55.4024 12.1287 55.3595 12.7295C55.3167 13.3304 55.274 13.9445 55.2317 14.572C55.189 15.1862 55.1401 15.8205 55.0848 16.4749C55.0427 17.1157 54.9944 17.79 54.9401 18.4977C54.8874 19.2988 54.7398 20.0081 54.4972 20.6258C54.2679 21.2432 53.9436 21.7623 53.5242 22.183C53.1182 22.6035 52.6036 22.9192 51.9805 23.1301C51.371 23.3541 50.6463 23.4734 49.8064 23.4881C49.3132 23.4967 48.8527 23.4714 48.4249 23.4122C47.9971 23.353 47.6423 23.2725 47.3605 23.1707C47.0787 23.0689 46.8903 22.9722 46.7954 22.8805C46.7816 22.8541 46.7678 22.8277 46.754 22.8012C46.7402 22.7748 46.7331 22.7483 46.7326 22.7216C46.7544 22.4412 46.7696 22.1675 46.7783 21.9007C46.8003 21.6336 46.8222 21.3598 46.8439 21.0794L47.1639 21.0738C47.4462 21.2022 47.7213 21.3041 47.9894 21.3795C48.2707 21.4546 48.565 21.5094 48.8724 21.5441C49.193 21.5785 49.5333 21.5925 49.8933 21.5863C50.3998 21.5774 50.8386 21.5031 51.2096 21.3633C51.5941 21.2365 51.9173 21.0375 52.1793 20.7662C52.3493 20.5766 52.4923 20.3607 52.6081 20.1187C52.7239 19.8766 52.8124 19.6017 52.8737 19.2939C52.9483 18.9859 53.0024 18.6449 53.0359 18.2709C53.09 17.5499 53.1383 16.8822 53.1809 16.2681C53.2233 15.6406 53.266 15.0264 53.3088 14.4256C53.3517 13.8247 53.3944 13.2172 53.437 12.603C53.4927 11.9753 53.5475 11.2942 53.6014 10.5599L53.3614 10.5641C52.9615 10.571 52.5615 10.578 52.1616 10.585C51.7617 10.592 51.3551 10.5991 50.9418 10.6063C50.5419 10.6133 50.1419 10.6202 49.742 10.6272C49.342 10.6342 48.9421 10.6412 48.5422 10.6482C48.4755 10.6493 48.4218 10.6303 48.3811 10.591C48.3538 10.5514 48.3395 10.4984 48.3383 10.4317C48.3606 10.1779 48.376 9.91763 48.3847 9.65077C48.4067 9.38368 48.4287 9.11659 48.4508 8.84949C49.024 8.83949 49.6039 8.82937 50.1905 8.81913C50.7771 8.80889 51.357 8.79877 51.9302 8.78876C52.5168 8.77852 53.1034 8.76828 53.69 8.75804C54.2765 8.7478 54.8631 8.73757 55.4497 8.72733ZM53.6648 3.87774C53.8647 3.87425 54.0647 3.87076 54.2647 3.86727C54.4647 3.86378 54.6646 3.86029 54.8646 3.8568C55.0779 3.85308 55.2845 3.84947 55.4845 3.84598C55.6978 3.84225 55.8978 3.83876 56.0844 3.83551C56.1511 3.83434 56.2047 3.85341 56.2454 3.8927C56.2861 3.932 56.3004 3.98509 56.2882 4.05198L56.1438 6.09481C55.9439 6.0983 55.7439 6.10179 55.5439 6.10528C55.344 6.10877 55.1373 6.11238 54.924 6.1161C54.7241 6.11959 54.5241 6.12309 54.3241 6.12658C54.1242 6.13007 53.9242 6.13356 53.7242 6.13705C53.6576 6.13821 53.6039 6.11914 53.5632 6.07985C53.5358 6.04032 53.5216 5.98723 53.5204 5.92057L53.6648 3.87774ZM67.9561 8.28899C68.796 8.27433 69.5388 8.42806 70.1845 8.75017C70.8433 9.05872 71.3452 9.54337 71.6901 10.2041C72.035 10.8649 72.1697 11.7026 72.094 12.7175L71.9999 14.1993C71.9873 14.2395 71.9746 14.2798 71.962 14.32C71.9491 14.3469 71.9229 14.374 71.8834 14.4014C71.857 14.4152 71.8171 14.4225 71.7638 14.4235L66.5846 14.5139C66.3713 14.5176 66.158 14.5213 65.9447 14.525C65.7314 14.5288 65.5181 14.5325 65.3048 14.5362L64.7048 14.5467L64.5415 13.2093L70.1606 13.1113C70.1723 13.0177 70.1776 12.9376 70.1764 12.8709C70.1886 12.8041 70.2005 12.7238 70.2122 12.6303C70.2567 12.1228 70.2293 11.6965 70.1299 11.3515C70.0436 10.993 69.8852 10.7024 69.6546 10.4797C69.4647 10.2963 69.2223 10.1605 68.9274 10.0723C68.6325 9.98411 68.2851 9.9435 67.8851 9.95049C67.0452 9.96515 66.3958 10.1965 65.9369 10.6446C65.4913 11.0924 65.2373 11.817 65.1748 12.8182L65.0132 15.0214C64.9675 15.4622 64.9943 15.8485 65.0934 16.1802C65.2059 16.5116 65.3707 16.7887 65.588 17.0117C65.8322 17.2474 66.1552 17.4218 66.5573 17.5348C66.9593 17.6478 67.4336 17.6995 67.9802 17.69C68.4735 17.6814 68.9063 17.6472 69.2786 17.5873C69.6507 17.5142 69.9958 17.4215 70.3139 17.3092C70.632 17.197 70.9563 17.058 71.2868 16.8922L71.6067 16.8866C71.584 17.1137 71.5614 17.3475 71.539 17.5879C71.5298 17.8281 71.514 18.0684 71.4915 18.3088C71.492 18.3355 71.4859 18.3689 71.4733 18.4092C71.4604 18.436 71.4409 18.4631 71.4147 18.4902C71.2837 18.6258 71.0527 18.7632 70.7218 18.9023C70.4039 19.0279 69.9991 19.135 69.5072 19.2236C69.0289 19.3253 68.4831 19.3815 67.8699 19.3922C67.11 19.4055 66.415 19.3176 65.785 19.1285C65.1682 18.9393 64.65 18.6616 64.2302 18.2955C63.8235 17.9159 63.5152 17.4412 63.3052 16.8715C63.1086 16.3015 63.0373 15.656 63.0914 14.9349L63.235 12.8521C63.2882 12.0777 63.4432 11.4082 63.7001 10.8437C63.9569 10.2791 64.2955 9.81311 64.7158 9.44572C65.1359 9.065 65.6177 8.78321 66.1613 8.60037C66.7179 8.40395 67.3162 8.30016 67.9561 8.28899ZM80.0964 18.9587C79.8964 18.9622 79.7031 18.9656 79.5165 18.9689C79.3432 18.9719 79.1632 18.975 78.9765 18.9783C78.7899 18.9815 78.5899 18.985 78.3766 18.9888C78.3366 18.9895 78.3032 18.9834 78.2763 18.9705C78.2492 18.9443 78.222 18.9181 78.1949 18.8919C78.1811 18.8655 78.1738 18.8256 78.1728 18.7723C78.2609 17.7039 78.3422 16.6357 78.4169 15.5675C78.4916 14.4994 78.5663 13.4313 78.641 12.3631C78.7157 11.295 78.7905 10.2269 78.8652 9.15874C78.9532 8.09037 79.0346 7.02212 79.1093 5.95399C79.1418 5.52669 79.1685 5.14617 79.1893 4.81242C79.2233 4.46511 79.2451 4.18468 79.2547 3.97115C79.4813 3.96719 79.6879 3.96359 79.8746 3.96033C80.0746 3.95684 80.2612 3.95358 80.4345 3.95055C80.6211 3.9473 80.8011 3.94416 80.9744 3.94113C81.0277 3.9402 81.068 3.95283 81.0951 3.97903C81.122 3.9919 81.1423 4.01154 81.1561 4.03797C81.1833 4.06417 81.1906 4.10405 81.1782 4.15761C81.093 5.38595 81.0012 6.62107 80.9028 7.86298C80.8176 9.09132 80.7325 10.3263 80.6475 11.568C80.5622 12.7963 80.4704 14.0315 80.3721 15.2734C80.2869 16.5017 80.1949 17.7302 80.0964 18.9587ZM85.6155 18.8624C85.4822 18.8647 85.382 18.8531 85.3149 18.8276C85.2475 18.7888 85.1797 18.7233 85.1114 18.6312C85.0703 18.5652 84.9882 18.4466 84.8652 18.2754C84.7422 18.1042 84.5987 17.9067 84.4348 17.6828C84.2706 17.4457 84.093 17.2021 83.9019 16.952C83.724 16.6884 83.5529 16.438 83.3887 16.2009C83.1834 15.8977 83.0121 15.634 82.8749 15.4097C82.7509 15.1852 82.647 14.9603 82.563 14.735C82.4924 14.5096 82.4281 14.264 82.3701 13.9983L81.6503 14.0109L82.9621 12.3877C83.4813 13.0988 84.0006 13.8165 84.5199 14.5409C85.0391 15.2519 85.5516 15.9631 86.0574 16.6744C86.5763 17.3721 87.1023 18.0897 87.6352 18.8272C87.4086 18.8311 87.1953 18.8348 86.9953 18.8383C86.8087 18.8416 86.6087 18.8451 86.3954 18.8488C86.1954 18.8523 85.9355 18.8568 85.6155 18.8624ZM80.1593 13.3968L80.8392 13.3849C80.9681 13.1293 81.0975 12.9003 81.2273 12.6981C81.3571 12.4958 81.4872 12.3068 81.6174 12.1312C81.7608 11.942 81.911 11.7593 82.068 11.5832C82.2249 11.4071 82.4017 11.224 82.5984 11.0339C82.8476 10.7895 83.1229 10.518 83.4244 10.2193C83.7259 9.92069 84.0537 9.60159 84.4078 9.26202C84.7619 8.92245 85.1225 8.56944 85.4895 8.20298L87.6688 8.14494C87.7221 8.14401 87.7624 8.15664 87.7895 8.18284C87.8164 8.1957 87.8367 8.21535 87.8505 8.24178C87.8641 8.25488 87.8712 8.28143 87.8719 8.32142C87.8593 8.36165 87.84 8.40199 87.814 8.44245C87.8014 8.48268 87.7558 8.54348 87.6772 8.62486C87.218 9.05961 86.7654 9.48758 86.3194 9.90876C85.8867 10.3297 85.4538 10.744 85.0209 11.1516C84.5879 11.5592 84.1616 11.9667 83.742 12.3741C83.3222 12.7682 82.9024 13.1689 82.4828 13.5763C82.0763 13.9701 81.6631 14.364 81.2432 14.7581C80.8367 15.1519 80.417 15.5526 79.984 15.9602L80.1593 13.3968ZM93.5804 8.06175L102.079 7.91341C102.146 7.91224 102.193 7.93143 102.22 7.97095C102.261 8.01025 102.282 8.06323 102.283 8.12988C102.273 8.30342 102.262 8.4703 102.252 8.63051C102.241 8.79071 102.231 8.95092 102.22 9.11113C102.21 9.27134 102.192 9.43833 102.169 9.6121L93.6701 9.76045C93.6434 9.76091 93.6168 9.76138 93.5901 9.76184C93.5632 9.74898 93.5363 9.73611 93.5094 9.72325C93.4956 9.69682 93.4818 9.67039 93.468 9.64396C93.4676 9.61729 93.467 9.58396 93.4663 9.54397C93.4766 9.37043 93.487 9.20356 93.4976 9.04335C93.5214 8.88291 93.5386 8.72258 93.5492 8.56238C93.5597 8.40217 93.5701 8.23529 93.5804 8.06175ZM101.655 16.8622C101.633 17.1159 101.611 17.3697 101.589 17.6234C101.579 17.8636 101.564 18.1106 101.541 18.3644C101.543 18.431 101.524 18.4847 101.484 18.5254C101.445 18.5661 101.385 18.5871 101.305 18.5885C101.265 18.5892 101.179 18.5907 101.045 18.5931C100.912 18.5954 100.745 18.5983 100.545 18.6018C100.359 18.6051 100.172 18.6083 99.9855 18.6116C99.8122 18.6146 99.6522 18.6174 99.5056 18.62C98.919 18.6302 98.3779 18.573 97.8824 18.4483C97.3999 18.31 96.9825 18.0839 96.6303 17.77C96.2915 17.4559 96.0375 17.0402 95.8685 16.5231C95.7127 16.0057 95.6549 15.3667 95.695 14.6058C95.75 13.9381 95.7985 13.2772 95.8404 12.623C95.8954 11.9553 95.9439 11.2943 95.9858 10.6402C96.0277 9.986 96.0696 9.33184 96.1116 8.67767C96.1666 8.00994 96.2149 7.34233 96.2566 6.67484C96.2908 6.34086 96.3183 6.00699 96.3392 5.67324C96.36 5.3395 96.3809 5.00575 96.4017 4.672C96.695 4.66688 96.9816 4.66188 97.2616 4.65699C97.5549 4.65187 97.8415 4.64687 98.1214 4.64198C98.1748 4.64105 98.215 4.65368 98.2421 4.67988C98.269 4.69275 98.2894 4.71239 98.3032 4.73882C98.3303 4.76502 98.3377 4.8049 98.3253 4.85846C98.2726 5.6595 98.2132 6.46066 98.1472 7.26193C98.0945 8.06297 98.0352 8.8708 97.9694 9.6854C97.917 10.4998 97.8644 11.3075 97.8117 12.1085C97.759 12.9096 97.6998 13.7174 97.634 14.532C97.6024 15.0126 97.616 15.4124 97.6749 15.7315C97.7336 16.0372 97.8579 16.2817 98.0478 16.4651C98.2241 16.6353 98.4462 16.7515 98.714 16.8135C98.9817 16.8755 99.3156 16.903 99.7155 16.896C99.8755 16.8932 100.049 16.8902 100.235 16.887C100.435 16.8835 100.629 16.8801 100.815 16.8768C101.002 16.8736 101.182 16.8704 101.355 16.8674L101.655 16.8622ZM118.109 7.63361C118.176 7.63244 118.236 7.65806 118.29 7.71045C118.358 7.76262 118.366 7.84249 118.314 7.95007C117.946 8.97 117.57 9.97671 117.187 10.9702C116.804 11.9504 116.428 12.9304 116.058 13.9104C115.688 14.877 115.325 15.8368 114.968 16.7898C114.611 17.7429 114.261 18.6891 113.918 19.6286C113.689 20.286 113.412 20.8176 113.085 21.2234C112.772 21.6289 112.391 21.9289 111.941 22.1235C111.504 22.3178 110.979 22.4203 110.366 22.431C110.219 22.4336 110.046 22.4366 109.846 22.4401C109.646 22.4436 109.453 22.4469 109.266 22.4502C109.079 22.4534 108.913 22.4564 108.766 22.4589C108.633 22.4612 108.546 22.4628 108.506 22.4635C108.44 22.4646 108.386 22.4456 108.345 22.4063C108.318 22.3801 108.304 22.327 108.302 22.247L108.416 20.7448L108.716 20.7395C108.983 20.7349 109.243 20.7303 109.496 20.7259C109.763 20.7213 110.029 20.7166 110.296 20.712C110.749 20.704 111.127 20.5908 111.43 20.3721C111.733 20.1535 111.967 19.8093 112.132 19.3397C112.247 19.031 112.419 18.5679 112.648 17.9505C112.877 17.3197 113.138 16.5951 113.43 15.7765C113.736 14.9444 114.054 14.0654 114.384 13.1394C114.728 12.2 115.065 11.2606 115.395 10.3214C115.739 9.3819 116.064 8.4961 116.369 7.66397C116.502 7.66165 116.636 7.65932 116.769 7.65699C116.916 7.65443 117.056 7.65199 117.189 7.64966C117.336 7.6471 117.482 7.64454 117.629 7.64198C117.789 7.63919 117.949 7.6364 118.109 7.63361ZM109.99 7.77532C110.11 7.77323 110.19 7.79183 110.231 7.83112C110.285 7.85686 110.319 7.92293 110.335 8.02935C110.549 8.8524 110.756 9.6289 110.955 10.3589C111.168 11.0753 111.366 11.7452 111.551 12.3688C111.735 12.9923 111.898 13.5696 112.041 14.1005C112.197 14.6312 112.339 15.1155 112.466 15.5533C112.594 15.9778 112.694 16.3628 112.766 16.7082L113.706 16.6918L113.229 18.0004L111.789 18.0255C111.656 18.0278 111.549 18.0163 111.469 17.9911C111.402 17.9656 111.34 17.9 111.285 17.7942C111.23 17.6752 111.16 17.5031 111.076 17.2778C110.992 17.0259 110.872 16.6546 110.717 16.1639C110.561 15.6599 110.378 15.0763 110.166 14.4133C109.954 13.7369 109.728 13.0207 109.488 12.2648C109.262 11.5086 109.035 10.7524 108.809 9.99628C108.582 9.22679 108.369 8.49705 108.17 7.80708C108.317 7.80452 108.464 7.80196 108.61 7.7994C108.757 7.79684 108.904 7.79429 109.05 7.79173C109.197 7.78917 109.344 7.78661 109.49 7.78405C109.65 7.78125 109.817 7.77835 109.99 7.77532Z" fill="#1E9BD1"/>
<path d="M62.3486 37.2752C62.2236 34.7871 62.3486 29.4673 62.3486 27.7433M26.1505 28.5605L37.5943 28.3312M46.353 27.8223L52.3619 27.8223M71.2919 27.1894L73.965 27.1894L77.9185 27.1204M86.6322 26.9825L92.3622 26.9135L98.0921 26.8444M105.333 26.7064L111.063 26.6374L116.793 26.5684M4.35412 28.7898L15.7979 28.5604" stroke="#1E9BD1" stroke-width="4.0906" stroke-miterlimit="1.5" stroke-linecap="round" stroke-linejoin="round"/>
<path d="M64.235 78.9915C62.6081 69.182 61.4457 66.793 51.1796 59.7096M64.235 78.9915C64.0174 70.1688 67.1188 63.9399 75.2162 59.424M64.235 78.9915C63.7263 72.1325 62.7406 55.81 62.8673 45.3928" stroke="#1E9BD1" stroke-width="4.0906" stroke-miterlimit="1.5" stroke-linecap="round" stroke-linejoin="round"/>
</svg>
