<svg width="32" height="33" viewBox="0 0 32 33" fill="none" xmlns="http://www.w3.org/2000/svg">
<path d="M26.6036 10.5703C26.6199 10.8054 26.6199 11.0405 26.6199 11.2777C26.6199 18.5069 21.1164 26.8444 11.0532 26.8444V26.8401C8.08049 26.8444 5.16953 25.9929 2.66699 24.3874C3.09925 24.4394 3.53367 24.4654 3.96918 24.4664C6.43272 24.4686 8.82584 23.642 10.764 22.1199C8.42283 22.0755 6.36988 20.549 5.65271 18.3206C6.4728 18.4788 7.31782 18.4463 8.12274 18.2263C5.57037 17.7107 3.73409 15.4681 3.73409 12.8638C3.73409 12.8399 3.73409 12.8172 3.73409 12.7944C4.4946 13.218 5.34612 13.4531 6.21713 13.4791C3.81318 11.8725 3.07217 8.67445 4.52385 6.17408C7.30156 9.59204 11.3999 11.6699 15.7994 11.8898C15.3584 9.98963 15.9608 7.99844 17.3821 6.66267C19.5857 4.5913 23.0513 4.69747 25.1227 6.89992C26.3479 6.65833 27.5223 6.20874 28.597 5.57173C28.1886 6.83817 27.3338 7.91394 26.1919 8.59753C27.2764 8.46969 28.3359 8.17936 29.3337 7.73627C28.5991 8.83695 27.674 9.79571 26.6036 10.5703Z" fill="#1E9BD1"/>
</svg>
