<svg width="119" height="82" viewBox="0 0 119 82" fill="none" xmlns="http://www.w3.org/2000/svg">
<path d="M7.44805 9.46045C8.14128 9.44835 8.76316 9.55085 9.3137 9.76794C9.87757 9.9848 10.3496 10.2899 10.7299 10.6834C11.1101 11.0768 11.3917 11.5453 11.5745 12.0888C11.7707 12.6322 11.8413 13.2377 11.7863 13.9054L11.6633 16.0279C11.5991 16.9358 11.3596 17.7268 10.9446 18.4008C10.5296 19.0748 9.97881 19.6045 9.29209 19.9899C8.60515 20.3619 7.80175 20.556 6.88189 20.572C6.18866 20.5841 5.56023 20.4884 4.99659 20.2849C4.43272 20.068 3.95399 19.763 3.5604 19.3698C3.17991 18.9631 2.89824 18.4879 2.71539 17.9443C2.53255 17.4008 2.46197 16.7953 2.50366 16.1278L2.64698 14.0249C2.71068 13.0904 2.95013 12.2927 3.36533 11.632C3.78029 10.958 4.33792 10.4349 5.03819 10.0626C5.73823 9.67699 6.54152 9.47628 7.44805 9.46045ZM7.45877 11.2205C6.87219 11.2308 6.36758 11.3529 5.94493 11.587C5.53562 11.8209 5.21459 12.1465 4.98184 12.564C4.76242 12.9812 4.63082 13.4636 4.58703 14.0111L4.42302 16.0743C4.39024 16.4882 4.42376 16.881 4.5236 17.2527C4.62343 17.6243 4.80221 17.9346 5.05992 18.1835C5.26362 18.3933 5.51315 18.5556 5.80854 18.6705C6.11702 18.7718 6.46456 18.819 6.85117 18.8123C7.43775 18.8021 7.93569 18.68 8.34501 18.4462C8.75409 18.199 9.06834 17.8668 9.28776 17.4496C9.52051 17.0321 9.65889 16.5563 9.70291 16.0221L9.86728 13.9789C9.89936 13.525 9.86548 13.1122 9.76565 12.7405C9.66581 12.3689 9.48704 12.0586 9.22932 11.8097C9.02586 11.6132 8.77656 11.4642 8.48141 11.3627C8.18626 11.2612 7.84538 11.2138 7.45877 11.2205ZM54.0152 19.5293C53.8419 19.5323 53.6686 19.5353 53.4953 19.5384C53.322 19.5414 53.1487 19.5444 52.9754 19.5474C52.8021 19.5505 52.6354 19.5534 52.4755 19.5562C52.4355 19.5569 52.3954 19.5509 52.3551 19.5383C52.328 19.5121 52.3009 19.4859 52.2738 19.4597C52.26 19.4332 52.2593 19.3932 52.2717 19.3397C52.3026 18.8191 52.3334 18.2918 52.3641 17.7578C52.4081 17.2236 52.4456 16.6962 52.4765 16.1756C52.5207 15.6548 52.5582 15.1274 52.5889 14.5934C52.6329 14.0592 52.677 13.5317 52.7213 13.0109C52.7653 12.4767 52.8028 11.9493 52.8337 11.4287C52.8552 11.1349 52.8048 10.9224 52.6825 10.7912C52.5733 10.6464 52.3987 10.5761 52.1588 10.5803C51.9455 10.584 51.7332 10.6478 51.522 10.7715C51.3106 10.8818 51.0803 11.0592 50.8312 11.3036C50.5954 11.5477 50.3276 11.8658 50.0277 12.2578L49.936 10.4391L50.7159 10.4255C50.9226 10.0485 51.1371 9.73135 51.3593 9.4741C51.5949 9.21662 51.8448 9.01889 52.1091 8.88092C52.3867 8.74272 52.6855 8.67083 53.0055 8.66525C53.2721 8.66059 53.513 8.70973 53.7282 8.81266C53.9431 8.90225 54.1188 9.03921 54.2554 9.22352C54.4051 9.39426 54.5088 9.60582 54.5665 9.85818C54.6374 10.097 54.6622 10.3699 54.6408 10.677C54.5975 11.2512 54.5542 11.8254 54.5109 12.3995C54.4809 12.9735 54.4442 13.5475 54.4009 14.1217C54.3574 14.6826 54.3139 15.2501 54.2706 15.8243C54.2406 16.3982 54.204 16.9723 54.1607 17.5464C54.1398 17.8802 54.1123 18.2141 54.0781 18.548C54.057 18.8684 54.0361 19.1955 54.0152 19.5293ZM49.7359 19.604C49.5892 19.6065 49.4359 19.6092 49.276 19.612C49.116 19.6148 48.956 19.6176 48.796 19.6204C48.6494 19.6229 48.5027 19.6255 48.3561 19.6281C48.3161 19.6288 48.276 19.6228 48.2358 19.6102C48.2086 19.584 48.1882 19.5576 48.1744 19.5312C48.1606 19.5048 48.1532 19.4649 48.1523 19.4116C48.1963 18.8774 48.2338 18.35 48.2647 17.8294C48.3087 17.2952 48.3462 16.7678 48.3771 16.2472C48.4211 15.713 48.4586 15.1856 48.4895 14.665C48.5335 14.1308 48.571 13.6034 48.6019 13.0828C48.6459 12.5486 48.6833 12.0145 48.714 11.4806C48.7371 11.2801 48.721 11.1204 48.6656 11.0013C48.6235 10.8821 48.5553 10.7966 48.4611 10.7449C48.3666 10.6798 48.2327 10.6488 48.0594 10.6519C47.8461 10.6556 47.6272 10.7194 47.4026 10.8434C47.1779 10.954 46.9409 11.1315 46.6918 11.3758C46.4561 11.62 46.1883 11.9447 45.8887 12.35L45.7566 10.512L46.4565 10.4998C46.6631 10.1095 46.8776 9.79237 47.1 9.54845C47.3355 9.29096 47.5921 9.09312 47.8698 8.95492C48.1474 8.81672 48.4528 8.74471 48.7861 8.7389C49.0527 8.73424 49.2869 8.77683 49.4885 8.86666C49.6901 8.95649 49.8591 9.09356 49.9957 9.27787C50.1454 9.44861 50.249 9.6535 50.3065 9.89254C50.3773 10.1313 50.402 10.3976 50.3804 10.6914C50.3371 11.2655 50.2944 11.8731 50.2522 12.5139C50.2101 13.1547 50.1621 13.8423 50.1082 14.5767C50.0544 15.3111 49.9948 16.0989 49.9294 16.9402C49.8772 17.7679 49.8127 18.6558 49.7359 19.604ZM45.6365 19.6755C45.5032 19.6779 45.3699 19.6802 45.2366 19.6825C45.1033 19.6848 44.9699 19.6872 44.8366 19.6895C44.7167 19.6916 44.59 19.6938 44.4567 19.6961C44.3234 19.6984 44.1967 19.7007 44.0768 19.7028C44.0368 19.7035 44.0034 19.704 43.9768 19.7045C43.9499 19.6916 43.923 19.6788 43.8961 19.6659C43.8823 19.6395 43.8685 19.613 43.8547 19.5866C43.8542 19.5599 43.8603 19.5265 43.8729 19.4863C43.9366 18.5517 44.0003 17.6171 44.064 16.6825C44.1275 15.7346 44.1911 14.7933 44.2548 13.8588C44.3316 12.9106 44.4018 11.9692 44.4655 11.0346C44.4985 10.634 44.5255 10.2668 44.5463 9.93307C44.5803 9.58576 44.6017 9.28534 44.6106 9.03181C44.7306 9.02972 44.8439 9.02774 44.9505 9.02588C45.0572 9.02402 45.1638 9.02216 45.2705 9.02029C45.3771 9.01843 45.4838 9.01657 45.5905 9.01471C45.6971 9.01285 45.8038 9.01099 45.9104 9.00912C45.9104 9.00912 45.9255 9.10888 45.9556 9.30838C45.9991 9.50765 46.0431 9.73359 46.0875 9.98618C46.1319 10.2388 46.1692 10.4648 46.1993 10.6643C46.2428 10.8636 46.2647 10.9699 46.2649 10.9832C46.1989 11.7845 46.1341 12.6591 46.0707 13.607C46.0072 14.5549 45.9378 15.543 45.8624 16.5711C45.7867 17.5859 45.7115 18.6207 45.6365 19.6755ZM74.3443 19.1744C74.0377 19.1798 73.7444 19.1849 73.4645 19.1898C73.1978 19.1944 72.9045 19.1996 72.5846 19.2051C72.5446 19.2058 72.5112 19.1998 72.4843 19.1869C72.4571 19.1607 72.43 19.1345 72.4029 19.1083C72.3891 19.0819 72.3884 19.0419 72.4008 18.9883C72.4535 18.1873 72.5062 17.3862 72.5589 16.5852C72.6116 15.7842 72.6643 14.9831 72.717 14.1821C72.783 13.3808 72.8425 12.5863 72.8954 11.7986C72.9394 11.2644 72.8458 10.866 72.6145 10.6033C72.3963 10.3271 72.0539 10.193 71.5873 10.2012C71.3207 10.2058 71.0415 10.2574 70.7499 10.3558C70.4582 10.4543 70.1607 10.5995 69.8573 10.7915C69.5537 10.9701 69.2444 11.2022 68.9294 11.4878C68.6274 11.7597 68.3131 12.0919 67.9866 12.4844L68.1103 10.4019L68.7702 10.3904C69.0962 9.97129 69.4367 9.61196 69.7915 9.31239C70.1597 9.01258 70.549 8.77909 70.9595 8.6119C71.3697 8.43138 71.8015 8.33716 72.2547 8.32925C72.708 8.32134 73.1027 8.39446 73.4387 8.54862C73.7879 8.68921 74.0716 8.89763 74.2898 9.17386C74.5211 9.43653 74.6866 9.75369 74.7865 10.1253C74.8996 10.4968 74.9399 10.8961 74.9074 11.3234C74.8655 11.9776 74.8169 12.6319 74.7616 13.2863C74.7195 13.9271 74.6708 14.5747 74.6155 15.2291C74.5734 15.8699 74.5312 16.5108 74.489 17.1516C74.4684 17.4987 74.441 17.8392 74.4069 18.1732C74.3858 18.4936 74.3649 18.8274 74.3443 19.1744ZM67.8253 19.2882C67.6254 19.2917 67.432 19.2951 67.2454 19.2983C67.0588 19.3016 66.8655 19.305 66.6655 19.3085C66.4789 19.3117 66.2789 19.3152 66.0656 19.3189C66.0389 19.3194 66.0123 19.3199 65.9856 19.3203C65.9587 19.3075 65.9318 19.2946 65.9049 19.2817C65.8911 19.2553 65.8773 19.2289 65.8635 19.2024C65.8631 19.1758 65.8625 19.1425 65.8618 19.1025C65.9161 18.3947 65.9704 17.687 66.0248 16.9793C66.0791 16.2716 66.1268 15.5706 66.1681 14.8765C66.2224 14.1688 66.2767 13.461 66.331 12.7533C66.3854 12.0456 66.433 11.338 66.474 10.6305C66.5068 10.2165 66.5336 9.84266 66.5545 9.50891C66.5884 9.1616 66.6101 8.87451 66.6194 8.64765C66.8461 8.64369 67.0527 8.64008 67.2393 8.63683C67.4393 8.63334 67.6326 8.62996 67.8193 8.6267C68.0059 8.62345 68.1925 8.62019 68.3792 8.61693C68.4325 8.616 68.4727 8.62863 68.4998 8.65483C68.5267 8.6677 68.5471 8.68734 68.5609 8.71378C68.5747 8.7402 68.5822 8.78675 68.5833 8.8534C68.4967 10.0018 68.4102 11.1568 68.3238 12.3185C68.2374 13.4801 68.1509 14.6418 68.0645 15.8035C67.9915 16.965 67.9117 18.1265 67.8253 19.2882ZM90.4335 17.7134L90.4791 16.8925C90.5007 16.5987 90.5223 16.3117 90.5441 16.0312C90.5659 15.7508 90.5877 15.4704 90.6095 15.19C90.6434 14.8426 90.6707 14.4955 90.6913 14.1484C90.7117 13.788 90.7322 13.4342 90.7528 13.0871C90.7867 12.7398 90.814 12.3926 90.8346 12.0456C90.8683 11.6849 90.8955 11.331 90.9161 10.984C90.95 10.6367 90.9772 10.2828 90.9976 9.92238L90.6776 9.92797C90.3443 9.93379 90.0111 9.9396 89.6778 9.94542C89.3578 9.95101 89.0312 9.95671 88.6979 9.96252C88.378 9.96811 88.0447 9.97393 87.6981 9.97998C87.6581 9.98068 87.618 9.97471 87.5778 9.96207C87.5506 9.93588 87.5302 9.90956 87.5164 9.88313C87.5023 9.84337 87.495 9.80349 87.4943 9.7635C87.5167 9.52307 87.5326 9.28276 87.5417 9.04256C87.5639 8.7888 87.5862 8.53504 87.6084 8.28128C88.1817 8.27128 88.7616 8.26115 89.3482 8.25092C89.9347 8.24068 90.5146 8.23055 91.0879 8.22055C91.6745 8.21031 92.261 8.20007 92.8476 8.18983C92.8876 8.18913 92.9212 8.20188 92.9483 8.22808C92.9752 8.24095 92.9955 8.2606 93.0093 8.28703C93.0365 8.31322 93.0505 8.35298 93.0514 8.40631C92.9959 9.04737 92.947 9.68166 92.9046 10.3092C92.8622 10.9367 92.8198 11.5642 92.7775 12.1917C92.7348 12.8058 92.6855 13.4201 92.6296 14.0345C92.587 14.6487 92.5444 15.2629 92.5017 15.877C92.4589 16.4779 92.416 17.0787 92.3732 17.6796L90.4335 17.7134ZM86.645 17.2595L95.7036 17.1013C95.7569 17.1004 95.7971 17.113 95.8243 17.1392C95.8512 17.1521 95.8716 17.1784 95.8857 17.2182C95.9128 17.2444 95.92 17.2776 95.9074 17.3178C95.8971 17.4914 95.8867 17.6582 95.8761 17.8184C95.8656 17.9787 95.855 18.1389 95.8445 18.2991C95.834 18.4593 95.8235 18.6262 95.8132 18.7997L86.7546 18.9578C86.7146 18.9585 86.6745 18.9525 86.6343 18.9399C86.6072 18.9137 86.58 18.8875 86.5529 18.8613C86.5389 18.8216 86.5382 18.7816 86.5508 18.7413C86.5611 18.5678 86.5715 18.4009 86.5821 18.2407C86.5926 18.0805 86.6032 17.9203 86.6137 17.7601C86.6242 17.5999 86.6347 17.433 86.645 17.2595ZM91.0627 3.34025C91.2627 3.33676 91.4627 3.33326 91.6626 3.32977C91.8626 3.32628 92.0626 3.32279 92.2625 3.3193C92.4758 3.31558 92.6825 3.31197 92.8824 3.30848C93.0957 3.30476 93.2957 3.30127 93.4823 3.29801C93.549 3.29685 93.6027 3.31591 93.6434 3.35521C93.6841 3.3945 93.6983 3.4476 93.6862 3.51449L93.5418 5.55732C93.3418 5.56081 93.1418 5.5643 92.9419 5.56779C92.7419 5.57128 92.5353 5.57489 92.322 5.57861C92.122 5.5821 91.922 5.58559 91.7221 5.58908C91.5221 5.59257 91.3221 5.59606 91.1222 5.59955C91.0555 5.60072 91.0018 5.58165 90.9611 5.54235C90.9338 5.50282 90.9195 5.44973 90.9183 5.38308L91.0627 3.34025ZM112.913 7.61956C113.753 7.6049 114.496 7.75862 115.141 8.08074C115.8 8.38929 116.302 8.87393 116.647 9.53468C116.992 10.1954 117.126 11.0332 117.051 12.048L116.957 13.5299C116.944 13.5701 116.931 13.6103 116.919 13.6506C116.906 13.6775 116.88 13.7046 116.84 13.7319C116.814 13.7457 116.774 13.7531 116.721 13.754L111.541 13.8444C111.328 13.8482 111.115 13.8519 110.901 13.8556C110.688 13.8593 110.475 13.8631 110.262 13.8668L109.662 13.8773L109.498 12.5399L115.117 12.4418C115.129 12.3483 115.134 12.2682 115.133 12.2015C115.145 12.1346 115.157 12.0544 115.169 11.9608C115.214 11.4533 115.186 11.0271 115.087 10.6821C115 10.3235 114.842 10.0329 114.611 9.81025C114.422 9.62687 114.179 9.49108 113.884 9.40288C113.589 9.31468 113.242 9.27407 112.842 9.28105C112.002 9.29571 111.353 9.52708 110.894 9.97516C110.448 10.423 110.194 11.1475 110.132 12.1488L109.97 14.3519C109.924 14.7928 109.951 15.1791 110.05 15.5107C110.163 15.8421 110.328 16.1193 110.545 16.3422C110.789 16.578 111.112 16.7524 111.514 16.8654C111.916 16.9784 112.39 17.0301 112.937 17.0206C113.43 17.012 113.863 16.9777 114.235 16.9179C114.608 16.8447 114.953 16.752 115.271 16.6398C115.589 16.5275 115.913 16.3885 116.244 16.2227L116.564 16.2172C116.541 16.4443 116.518 16.678 116.496 16.9184C116.487 17.1586 116.471 17.399 116.448 17.6394C116.449 17.666 116.443 17.6995 116.43 17.7397C116.417 17.7666 116.398 17.7936 116.371 17.8208C116.24 17.9564 116.01 18.0938 115.679 18.2329C115.361 18.3585 114.956 18.4656 114.464 18.5542C113.986 18.6558 113.44 18.712 112.827 18.7228C112.067 18.736 111.372 18.6481 110.742 18.4591C110.125 18.2698 109.607 17.9922 109.187 17.6261C108.78 17.2465 108.472 16.7718 108.262 16.202C108.065 15.632 107.994 14.9865 108.048 14.2655L108.192 12.1826C108.245 11.4083 108.4 10.7388 108.657 10.1742C108.914 9.60966 109.252 9.14368 109.673 8.77629C110.093 8.39556 110.575 8.11378 111.118 7.93093C111.675 7.73452 112.273 7.63073 112.913 7.61956Z" fill="#1E9BD1"/>
<path d="M62.1279 37.3944C62.0029 34.9062 62.1279 29.5865 62.1279 27.8625M25.9298 28.6796L37.3736 28.4503M46.1323 27.9414L52.1412 27.9414M71.0712 27.3086L73.7443 27.3086L77.6978 27.2396M86.4115 27.1016L92.1415 27.0326L97.8714 26.9636M105.112 26.8255L110.842 26.7565L116.572 26.6875M4.13342 28.9089L15.5772 28.6796" stroke="#1E9BD1" stroke-width="4.0906" stroke-miterlimit="1.5" stroke-linecap="round" stroke-linejoin="round"/>
<path d="M64.0143 79.1107C62.3874 69.3012 61.225 66.9122 50.9588 59.8287M64.0143 79.1107C63.7967 70.2879 66.8981 64.059 74.9955 59.5432M64.0143 79.1107C63.5056 72.2516 62.5199 55.9292 62.6466 45.5119" stroke="#1E9BD1" stroke-width="4.0906" stroke-miterlimit="1.5" stroke-linecap="round" stroke-linejoin="round"/>
</svg>
