<svg width="26" height="26" viewBox="0 0 26 26" fill="none" xmlns="http://www.w3.org/2000/svg">
<path fill-rule="evenodd" clip-rule="evenodd" d="M25.0059 12.875C25.0059 19.7786 19.4094 25.375 12.5059 25.375C5.6023 25.375 0.00585938 19.7786 0.00585938 12.875C0.00585938 5.97144 5.6023 0.375 12.5059 0.375C19.4094 0.375 25.0059 5.97144 25.0059 12.875ZM12.9538 9.60306C11.738 10.1088 9.30806 11.1554 5.66406 12.7431C5.07233 12.9784 4.76235 13.2086 4.73414 13.4337C4.68645 13.8141 5.16283 13.9639 5.81154 14.1679C5.89978 14.1956 5.99121 14.2244 6.08494 14.2548C6.72317 14.4623 7.5817 14.705 8.02801 14.7146C8.43286 14.7234 8.88472 14.5565 9.38359 14.2139C12.7883 11.9156 14.5458 10.754 14.6562 10.7289C14.734 10.7113 14.8419 10.6891 14.915 10.754C14.9881 10.819 14.9809 10.942 14.9731 10.975C14.9259 11.1762 13.056 12.9147 12.0883 13.8144C11.7866 14.0948 11.5726 14.2938 11.5288 14.3392C11.4308 14.441 11.331 14.5373 11.235 14.6298C10.6421 15.2014 10.1974 15.63 11.2596 16.33C11.77 16.6664 12.1785 16.9445 12.586 17.222C13.031 17.5251 13.4749 17.8274 14.0492 18.2038C14.1955 18.2998 14.3352 18.3994 14.4713 18.4964C14.9892 18.8656 15.4545 19.1973 16.0294 19.1444C16.3634 19.1137 16.7084 18.7996 16.8836 17.8629C17.2977 15.6491 18.1117 10.8526 18.2998 8.87603C18.3163 8.70286 18.2956 8.48123 18.2789 8.38394C18.2623 8.28666 18.2275 8.14804 18.101 8.04543C17.9512 7.9239 17.72 7.89828 17.6166 7.9001C17.1465 7.90838 16.4252 8.1592 12.9538 9.60306Z" fill="#636363" fill-opacity="0.44"/>
</svg>
