<svg width="119" height="82" viewBox="0 0 119 82" fill="none" xmlns="http://www.w3.org/2000/svg">
<path d="M7.64422 8.99912C8.25512 8.98819 8.79553 9.03703 9.26545 9.14565C9.73514 9.24126 10.1142 9.358 10.4026 9.49586C10.7037 9.6205 10.9007 9.73399 10.9935 9.83635C11.0459 9.86142 11.0724 9.89345 11.0731 9.93244C11.0865 9.9582 11.0872 9.9972 11.0751 10.0494C11.0663 10.2966 11.051 10.5439 11.0292 10.7914C11.0072 11.0258 10.9918 11.2666 10.983 11.5138L10.6711 11.5194C10.2117 11.2676 9.74697 11.0808 9.27683 10.9592C8.80647 10.8246 8.25934 10.7629 7.63544 10.7741C6.98554 10.7857 6.4349 10.8996 5.98352 11.1157C5.54491 11.3185 5.19928 11.6368 4.94663 12.0704C4.70675 12.4907 4.55996 13.0329 4.50626 13.697L4.39502 15.1812C4.35167 15.6891 4.37869 16.1307 4.4761 16.506C4.58628 16.8681 4.76706 17.1769 5.01845 17.4324C5.24318 17.6494 5.53201 17.8133 5.88495 17.924C6.25088 18.0345 6.69381 18.0851 7.21372 18.0758C7.61666 18.0686 7.98655 18.0294 8.32338 17.9584C8.67322 17.8871 9.00312 17.7902 9.31308 17.6677C9.63603 17.5449 9.95855 17.3961 10.2806 17.2213L10.5926 17.2157C10.571 17.4761 10.5494 17.7366 10.5279 17.997C10.5061 18.2444 10.4845 18.5048 10.4632 18.7783C10.4636 18.8043 10.4575 18.8304 10.445 18.8566C10.4454 18.8826 10.4264 18.9089 10.3878 18.9356C10.2731 19.0677 10.0608 19.2015 9.75107 19.3371C9.44133 19.4726 9.05317 19.5836 8.58657 19.67C8.13319 19.7691 7.61405 19.8239 7.02914 19.8344C6.26227 19.8481 5.58449 19.7497 4.99582 19.5392C4.40715 19.3287 3.91442 19.0254 3.51762 18.6295C3.1206 18.2205 2.83273 17.7316 2.65401 17.1627C2.48808 16.5806 2.43163 15.938 2.48466 15.2349L2.59225 13.5362C2.65385 12.5729 2.90009 11.7624 3.33095 11.1046C3.77458 10.4336 4.36396 9.92244 5.09909 9.57123C5.83399 9.20703 6.68237 9.01633 7.64422 8.99912ZM24.6574 8.69478C25.3333 8.68268 25.9396 8.78236 26.4762 8.99379C27.0259 9.20499 27.486 9.50231 27.8566 9.88574C28.2272 10.2692 28.5015 10.7258 28.6796 11.2557C28.8706 11.7854 28.9392 12.3758 28.8853 13.0268L28.7645 15.0963C28.7015 15.9816 28.4677 16.7529 28.0628 17.4103C27.6579 18.0676 27.1206 18.5843 26.451 18.9603C25.781 19.3234 24.9977 19.5129 24.1008 19.529C23.4249 19.5411 22.8122 19.448 22.2628 19.2498C21.7131 19.0386 21.2465 18.7414 20.8629 18.3582C20.4921 17.9618 20.2177 17.4986 20.0396 16.9687C19.8616 16.4388 19.793 15.8484 19.8339 15.1976L19.9745 13.1472C20.037 12.236 20.2708 11.4582 20.6759 10.8138C21.0807 10.1565 21.6246 9.64617 22.3076 9.2829C22.9902 8.90663 23.7735 8.71059 24.6574 8.69478ZM24.6671 10.4109C24.0952 10.4211 23.6032 10.5404 23.191 10.7688C22.7918 10.997 22.4787 11.3147 22.2516 11.7218C22.0375 12.1287 21.909 12.5991 21.866 13.1329L21.7053 15.1446C21.6732 15.5482 21.7057 15.9312 21.8029 16.2935C21.9 16.6559 22.0742 16.9583 22.3254 17.2008C22.5239 17.4053 22.7671 17.5635 23.0551 17.6754C23.3558 17.774 23.6946 17.82 24.0716 17.8132C24.6435 17.803 25.129 17.6838 25.5282 17.4556C25.9271 17.2144 26.2337 16.8904 26.4478 16.4835C26.6749 16.0764 26.81 15.6124 26.8531 15.0915L27.0142 13.0993C27.0457 12.6567 27.0128 12.2542 26.9156 11.8919C26.8185 11.5296 26.6443 11.2271 26.3931 10.9846C26.1948 10.7931 25.9518 10.6479 25.6641 10.5491C25.3764 10.4502 25.044 10.4041 24.6671 10.4109ZM45.8285 18.9257C45.5296 18.9311 45.2436 18.9362 44.9707 18.9411C44.7107 18.9457 44.4248 18.9509 44.1128 18.9564C44.0738 18.9571 44.0412 18.9512 44.015 18.9387C43.9886 18.9132 43.9621 18.8876 43.9357 18.8621C43.9222 18.8363 43.9216 18.7973 43.9337 18.7451C43.9854 17.9641 44.0371 17.183 44.0888 16.402C44.1405 15.6209 44.1922 14.8399 44.2439 14.0588C44.3086 13.2775 44.367 12.5029 44.4189 11.7348C44.462 11.214 44.3709 10.8255 44.1455 10.5695C43.9329 10.3003 43.5991 10.1697 43.1442 10.1779C42.8842 10.1825 42.612 10.2329 42.3276 10.329C42.0432 10.4251 41.7531 10.5668 41.4573 10.7541C41.1612 10.9284 40.8595 11.1549 40.5522 11.4334C40.2577 11.6987 39.9511 12.0228 39.6326 12.4055L39.7541 10.375L40.3974 10.3635C40.7155 9.95476 41.0476 9.60427 41.3937 9.31203C41.7528 9.01956 42.1324 8.79173 42.5327 8.62855C42.9328 8.45236 43.3538 8.36032 43.7957 8.35241C44.2376 8.34451 44.6224 8.41564 44.95 8.5658C45.2904 8.70274 45.5669 8.90582 45.7795 9.17506C46.0049 9.43107 46.1662 9.74024 46.2634 10.1026C46.3735 10.4646 46.4127 10.854 46.3808 11.2706C46.3396 11.9085 46.292 12.5464 46.2378 13.1845C46.1965 13.8093 46.1487 14.4408 46.0946 15.0789C46.0532 15.7037 46.0118 16.3285 45.9705 16.9534C45.9502 17.2918 45.9234 17.6238 45.8899 17.9495C45.8692 18.2619 45.8488 18.5873 45.8285 18.9257ZM39.4726 19.0394C39.2776 19.0429 39.0891 19.0463 38.9072 19.0496C38.7252 19.0528 38.5367 19.0562 38.3417 19.0597C38.1598 19.0629 37.9648 19.0664 37.7568 19.0701C37.7308 19.0706 37.7048 19.0711 37.6788 19.0715C37.6526 19.059 37.6264 19.0465 37.6002 19.0339C37.5868 19.0082 37.5733 18.9824 37.5599 18.9566C37.5594 18.9306 37.5589 18.8981 37.5582 18.8592C37.6115 18.1691 37.6647 17.479 37.718 16.789C37.7712 16.0989 37.8181 15.4155 37.8586 14.7386C37.9118 14.0486 37.9651 13.3585 38.0184 12.6684C38.0716 11.9784 38.1184 11.2884 38.1586 10.5986C38.1908 10.195 38.2171 9.83043 38.2375 9.50501C38.2708 9.16636 38.292 8.88644 38.3012 8.66524C38.5222 8.66128 38.7237 8.65768 38.9056 8.65443C39.1006 8.65094 39.2891 8.64757 39.471 8.64431C39.653 8.64106 39.835 8.6378 40.017 8.63455C40.0689 8.63362 40.1082 8.64592 40.1346 8.67145C40.1608 8.68398 40.1806 8.70313 40.1941 8.72889C40.2075 8.75466 40.2148 8.80003 40.2159 8.86502C40.131 9.98472 40.0461 11.1109 39.9614 12.2436C39.8767 13.3763 39.792 14.509 39.7072 15.6417C39.6355 16.7742 39.5573 17.9067 39.4726 19.0394ZM55.5094 8.35741L63.7955 8.20918C63.8605 8.20801 63.9063 8.2267 63.933 8.26523C63.9727 8.30352 63.993 8.35517 63.9941 8.42016C63.984 8.58937 63.9738 8.75207 63.9635 8.90828C63.9531 9.06449 63.9428 9.2207 63.9324 9.37691C63.9221 9.53312 63.9054 9.69595 63.8822 9.86539L55.5961 10.0136C55.5701 10.0141 55.5441 10.0145 55.5181 10.015C55.4919 10.0025 55.4656 9.98995 55.4394 9.97742C55.426 9.95165 55.4125 9.92589 55.3991 9.90012C55.3987 9.87413 55.3981 9.84163 55.3974 9.80264C55.4076 9.63343 55.4178 9.47072 55.4281 9.31451C55.4515 9.15807 55.4683 9.00174 55.4787 8.84553C55.489 8.68932 55.4992 8.52661 55.5094 8.35741ZM63.3786 16.9345C63.3568 17.182 63.335 17.4294 63.3132 17.6768C63.3042 17.911 63.2888 18.1518 63.267 18.3993C63.2681 18.4642 63.2495 18.5166 63.2111 18.5563C63.1728 18.596 63.1147 18.6165 63.0367 18.6179C62.9977 18.6186 62.9132 18.6201 62.7832 18.6224C62.6532 18.6248 62.4908 18.6277 62.2958 18.6312C62.1138 18.6344 61.9318 18.6377 61.7499 18.6409C61.5809 18.644 61.4249 18.6467 61.282 18.6493C60.71 18.6595 60.1825 18.604 59.6994 18.4826C59.229 18.348 58.8222 18.1277 58.479 17.8218C58.1487 17.5157 57.9013 17.1105 57.7366 16.6064C57.585 16.102 57.5289 15.4789 57.5683 14.7371C57.6222 14.086 57.6697 13.4416 57.7109 12.8037C57.7648 12.1527 57.8123 11.5082 57.8535 10.8704C57.8946 10.2325 57.9358 9.5947 57.9769 8.95687C58.0308 8.3058 58.0783 7.65485 58.1192 7.00401C58.1526 6.67836 58.1796 6.35283 58.2001 6.02741C58.2205 5.70199 58.241 5.37657 58.2614 5.05115C58.5474 5.04604 58.8269 5.04104 59.0998 5.03616C59.3858 5.03104 59.6652 5.02604 59.9382 5.02116C59.9902 5.02023 60.0294 5.03253 60.0558 5.05806C60.082 5.07059 60.1019 5.08974 60.1153 5.11551C60.1417 5.14104 60.1489 5.17992 60.1368 5.23214C60.0851 6.01319 60.0269 6.79436 59.9622 7.57564C59.9105 8.35669 59.8524 9.14435 59.7879 9.93863C59.7364 10.7327 59.6848 11.5202 59.6331 12.3013C59.5814 13.0823 59.5233 13.87 59.4588 14.6643C59.4278 15.1329 59.4409 15.5227 59.4982 15.8338C59.5553 16.1318 59.6764 16.3702 59.8615 16.5489C60.0333 16.7148 60.2498 16.828 60.5109 16.8883C60.7719 16.9487 61.0974 16.9753 61.4874 16.9684C61.6433 16.9656 61.8123 16.9625 61.9943 16.9593C62.1892 16.9558 62.3777 16.9524 62.5597 16.9492C62.7417 16.9459 62.9171 16.9428 63.0861 16.9398L63.3786 16.9345ZM81.2234 11.642C81.191 12.0327 81.1584 12.4038 81.1253 12.7554C81.1053 13.1069 81.0852 13.4518 81.0649 13.7902C81.0447 14.1286 81.0244 14.4605 81.0039 14.7859C80.9832 15.0984 80.9626 15.4173 80.9422 15.7427C80.9323 15.9249 80.9349 16.0809 80.9501 16.2106C80.9781 16.3271 81.0317 16.4172 81.1108 16.4808C81.1637 16.5319 81.2293 16.5697 81.3077 16.5943C81.3992 16.6187 81.4969 16.6299 81.6009 16.6281C81.6398 16.6274 81.6723 16.6268 81.6983 16.6263C81.7373 16.6256 81.7698 16.625 81.7958 16.6246L82.1078 16.619C82.099 16.8662 82.0836 17.107 82.0616 17.3414C82.0396 17.5759 82.0242 17.8167 82.0154 18.0639C82.0037 18.1421 81.9787 18.201 81.9404 18.2407C81.9018 18.2674 81.85 18.2814 81.7851 18.2825C81.7201 18.2837 81.6226 18.2854 81.4926 18.2878C81.3626 18.2901 81.2456 18.2922 81.1417 18.294C80.8037 18.3001 80.4975 18.2601 80.223 18.1739C79.9612 18.0746 79.7314 17.9357 79.5333 17.7572C79.348 17.5655 79.2075 17.334 79.1119 17.0626C79.0293 16.7911 78.9979 16.4796 79.018 16.1282C79.049 15.6595 79.0864 15.1843 79.1302 14.7024C79.1738 14.2076 79.2111 13.7258 79.2421 13.2572C79.2518 13.062 79.2615 12.8668 79.2711 12.6716C79.2808 12.4764 79.2905 12.2812 79.3002 12.086C79.3228 11.8905 79.339 11.6952 79.3487 11.5C79.3793 11.0054 79.3271 10.6163 79.1923 10.3326C79.0702 10.0358 78.8391 9.82537 78.4989 9.70143C78.1718 9.57726 77.7158 9.52041 77.1308 9.53087C76.7279 9.53808 76.3513 9.56432 76.001 9.60959C75.6507 9.65487 75.3073 9.71952 74.9707 9.80355C74.6471 9.88735 74.3109 9.99739 73.9622 10.1336L73.6502 10.1392C73.672 9.8918 73.6873 9.64448 73.6961 9.39729C73.7179 9.14986 73.7333 8.90904 73.7423 8.67484C73.7546 8.63562 73.7671 8.60289 73.7796 8.57666C73.7919 8.53743 73.8044 8.50471 73.8169 8.47848C73.8938 8.41209 74.0939 8.324 74.417 8.2142C74.7532 8.10417 75.1611 8.00586 75.6407 7.91927C76.1203 7.83268 76.6135 7.78485 77.1205 7.77578C77.8743 7.76229 78.5191 7.82877 79.0546 7.97522C79.6032 8.12143 80.0427 8.3541 80.3732 8.67324C80.7037 8.99238 80.9381 9.39776 81.0765 9.88936C81.2277 10.3677 81.2766 10.9519 81.2234 11.642ZM74.4844 15.6047C74.4525 16.0213 74.5425 16.3448 74.7545 16.575C74.9662 16.7922 75.3125 16.8966 75.7934 16.888C76.2354 16.8801 76.6503 16.8141 77.0383 16.6902C77.439 16.553 77.832 16.3444 78.2173 16.0645C78.6026 15.7845 79.0058 15.4133 79.427 14.9507L79.3782 16.6678L78.7738 16.6786C78.5465 17.0728 78.2662 17.4093 77.9329 17.6883C77.5996 17.9673 77.2198 18.1887 76.7935 18.3523C76.367 18.503 75.8938 18.5829 75.3739 18.5922C74.75 18.6034 74.2216 18.4958 73.7887 18.2695C73.3685 18.03 73.0508 17.6977 72.8356 17.2724C72.6333 16.847 72.5469 16.3545 72.5764 15.7948L72.6421 15.072C72.674 14.6554 72.7653 14.2897 72.9159 13.975C73.0794 13.647 73.2957 13.3701 73.5649 13.1442C73.8468 12.9051 74.1818 12.7236 74.5697 12.5997C74.9577 12.4757 75.3921 12.4094 75.873 12.4008C76.302 12.3932 76.7244 12.3856 77.1403 12.3782C77.5693 12.3705 77.9917 12.3629 78.4076 12.3555C78.8236 12.348 79.233 12.3407 79.6359 12.3335C79.7399 12.3317 79.8126 12.4019 79.8541 12.5441C79.9085 12.6862 79.9374 12.8547 79.9407 13.0497C79.944 13.2446 79.9343 13.4399 79.9116 13.6353C79.4567 13.6434 79.0343 13.651 78.6443 13.658C78.2544 13.6649 77.8515 13.6721 77.4355 13.6796C77.0326 13.6868 76.5842 13.6948 76.0903 13.7037C75.8043 13.7088 75.5579 13.7457 75.351 13.8144C75.1569 13.8699 74.996 13.9638 74.8683 14.0961C74.766 14.2019 74.6837 14.3269 74.6211 14.4711C74.5716 14.615 74.5417 14.7715 74.5316 14.9407L74.4844 15.6047ZM95.8295 7.42159C96.4404 7.41067 96.9808 7.45951 97.4507 7.56812C97.9204 7.66373 98.2995 7.78047 98.5879 7.91834C98.889 8.04297 99.086 8.15647 99.1788 8.25882C99.2312 8.28389 99.2577 8.31592 99.2584 8.35491C99.2718 8.38068 99.2725 8.41967 99.2604 8.4719C99.2516 8.71909 99.2363 8.96641 99.2145 9.21384C99.1925 9.44827 99.1771 9.68908 99.1683 9.93628L98.8564 9.94186C98.397 9.69003 97.9323 9.50332 97.4621 9.38171C96.9918 9.2471 96.4446 9.18537 95.8207 9.19653C95.1708 9.20816 94.6202 9.32203 94.1688 9.53813C93.7302 9.74101 93.3846 10.0592 93.1319 10.4928C92.892 10.9132 92.7453 11.4554 92.6916 12.1195L92.5803 13.6037C92.537 14.1116 92.564 14.5531 92.6614 14.9285C92.7716 15.2905 92.9524 15.5994 93.2037 15.8549C93.4285 16.0719 93.7173 16.2358 94.0702 16.3465C94.4362 16.457 94.8791 16.5075 95.399 16.4982C95.802 16.491 96.1718 16.4519 96.5087 16.3809C96.8585 16.3096 97.1884 16.2127 97.4984 16.0901C97.8213 15.9673 98.1438 15.8185 98.4659 15.6438L98.7779 15.6382C98.7563 15.8986 98.7347 16.159 98.7132 16.4195C98.6914 16.6669 98.6698 16.9273 98.6485 17.2007C98.6489 17.2267 98.6428 17.2528 98.6303 17.2791C98.6307 17.3051 98.6117 17.3314 98.5731 17.3581C98.4584 17.4902 98.2461 17.624 97.9364 17.7596C97.6266 17.8951 97.2385 18.0061 96.7719 18.0924C96.3185 18.1916 95.7993 18.2464 95.2144 18.2568C94.4476 18.2705 93.7698 18.1721 93.1811 17.9616C92.5925 17.7511 92.0997 17.4479 91.7029 17.0519C91.3059 16.643 91.018 16.154 90.8393 15.5852C90.6734 15.003 90.6169 14.3604 90.67 13.6574L90.7775 11.9587C90.8392 10.9954 91.0854 10.1849 91.5162 9.52708C91.9599 8.85603 92.5493 8.34491 93.2844 7.99371C94.0193 7.6295 94.8677 7.4388 95.8295 7.42159ZM108.421 7.41089L116.707 7.26266C116.772 7.2615 116.818 7.28018 116.844 7.31871C116.884 7.35701 116.904 7.40865 116.905 7.47364C116.895 7.64285 116.885 7.80556 116.875 7.96177C116.864 8.11798 116.854 8.27419 116.844 8.4304C116.833 8.58661 116.817 8.74943 116.793 8.91887L108.507 9.0671C108.481 9.06757 108.455 9.06803 108.429 9.0685C108.403 9.05597 108.377 9.04343 108.351 9.0309C108.337 9.00514 108.324 8.97937 108.31 8.95361C108.31 8.92761 108.309 8.89512 108.309 8.85612C108.319 8.68691 108.329 8.52421 108.339 8.368C108.363 8.21155 108.379 8.05523 108.39 7.89902C108.4 7.74281 108.41 7.5801 108.421 7.41089ZM116.29 15.988C116.268 16.2354 116.246 16.4829 116.224 16.7303C116.215 16.9645 116.2 17.2053 116.178 17.4527C116.179 17.5177 116.161 17.5701 116.122 17.6098C116.084 17.6495 116.026 17.67 115.948 17.6714C115.909 17.6721 115.824 17.6736 115.694 17.6759C115.564 17.6783 115.402 17.6812 115.207 17.6846C115.025 17.6879 114.843 17.6912 114.661 17.6944C114.492 17.6974 114.336 17.7002 114.193 17.7028C113.621 17.713 113.094 17.6574 112.611 17.5361C112.14 17.4015 111.733 17.1812 111.39 16.8753C111.06 16.5691 110.812 16.164 110.648 15.6599C110.496 15.1555 110.44 14.5324 110.479 13.7906C110.533 13.1395 110.581 12.4951 110.622 11.8572C110.676 11.2062 110.724 10.5617 110.765 9.92386C110.806 9.28603 110.847 8.64819 110.888 8.01035C110.942 7.35928 110.989 6.70833 111.03 6.0575C111.064 5.73184 111.091 5.40631 111.111 5.08089C111.132 4.75547 111.152 4.43006 111.173 4.10464C111.459 4.09952 111.738 4.09452 112.011 4.08964C112.297 4.08453 112.576 4.07953 112.849 4.07464C112.901 4.07371 112.941 4.08601 112.967 4.11155C112.993 4.12408 113.013 4.14323 113.026 4.16899C113.053 4.19452 113.06 4.2334 113.048 4.28563C112.996 5.06668 112.938 5.84784 112.873 6.62912C112.822 7.41017 112.764 8.19784 112.699 8.99212C112.648 9.78616 112.596 10.5737 112.544 11.3548C112.493 12.1358 112.434 12.9235 112.37 13.7178C112.339 14.1864 112.352 14.5762 112.409 14.8872C112.467 15.1853 112.588 15.4236 112.773 15.6024C112.945 15.7683 113.161 15.8815 113.422 15.9418C113.683 16.0021 114.009 16.0288 114.399 16.0218C114.555 16.0191 114.723 16.016 114.905 16.0128C115.1 16.0093 115.289 16.0059 115.471 16.0027C115.653 15.9994 115.828 15.9963 115.997 15.9932L116.29 15.988Z" fill="#1E9BD1"/>
<path d="M61.3654 37.6373C61.2435 35.1503 61.3654 29.8331 61.3654 28.1099M26.0617 28.9267L37.2227 28.6975M45.765 28.1888L51.6255 28.1888M70.0878 27.5563L72.6948 27.5563L76.5507 27.4873M85.0491 27.3494L90.6375 27.2805L96.2259 27.2115M103.288 27.0735L108.876 27.0045L114.464 26.9355M4.80378 29.1559L15.9648 28.9267" stroke="#1E9BD1" stroke-width="4.0906" stroke-miterlimit="1.5" stroke-linecap="round" stroke-linejoin="round"/>
<path d="M63.2054 79.334C61.6187 69.5291 60.485 67.1412 50.4725 60.0611M63.2054 79.334C62.9931 70.5154 66.018 64.2894 73.9153 59.7757M63.2054 79.334C62.7093 72.4781 61.748 56.1634 61.8715 45.7511" stroke="#1E9BD1" stroke-width="4.0906" stroke-miterlimit="1.5" stroke-linecap="round" stroke-linejoin="round"/>
</svg>
